<svg xmlns="http://www.w3.org/2000/svg" width="115.237" height="100" viewBox="0 0 115.237 100">
  <path id="Kwitansi" d="M66.46,72.46V67.338H56.216a2.568,2.568,0,0,1-2.561-2.561V54.534a2.568,2.568,0,0,1,2.561-2.561h3.841V46.851a2.561,2.561,0,1,1,5.122,0v5.122h3.841a2.561,2.561,0,0,1,0,5.122H58.777v5.122H69.021a2.568,2.568,0,0,1,2.561,2.561V75.021a2.568,2.568,0,0,1-2.561,2.561H65.179V82.7a2.561,2.561,0,1,1-5.122,0V77.581H56.216a2.561,2.561,0,1,1,0-5.122Zm53.777-58.9V46.851a2.568,2.568,0,0,1-2.561,2.561H94.629v54.161c0,.128,0,.128-.128.256,0,.128,0,.128-.128.256,0,.128-.128.128-.128.256s-.128.128-.128.256-.128.128-.128.256a.125.125,0,0,1-.128.128l-.256.256-.128.128-7.426,5.122h-.128c-.128.128-.256.128-.512.256-.128,0-.128,0-.256.128-.256,0-.384.128-.64.128h0a1.154,1.154,0,0,1-.64-.128c-.128,0-.128,0-.256-.128-.128,0-.256-.128-.512-.256h-.128l-5.89-4.1-5.89,4.1h-.128c-.128.128-.256.128-.512.256-.128,0-.128,0-.256.128-.256,0-.384.128-.64.128h0a1.154,1.154,0,0,1-.64-.128c-.128,0-.128,0-.256-.128-.128,0-.256-.128-.512-.256h-.128l-5.506-4.225-5.89,4.1H56.6c-.128.128-.256.128-.512.256-.128,0-.128,0-.256.128-.256,0-.384.128-.64.128h0a1.154,1.154,0,0,1-.64-.128c-.128,0-.128,0-.256-.128-.128,0-.256-.128-.512-.256h-.128l-5.89-4.1-5.89,4.1h-.128c-.128.128-.256.128-.512.256-.128,0-.128,0-.256.128-.256,0-.384.128-.64.128h0a1.154,1.154,0,0,1-.64-.128c-.128,0-.128,0-.256-.128-.128,0-.256-.128-.512-.256H38.8l-7.3-5.122h0l-.128-.128-.256-.256-.128-.128c0-.128-.128-.128-.128-.256s-.128-.128-.128-.256-.128-.128-.128-.256,0-.128-.128-.256c0-.128,0-.128-.128-.256V49.412H7.561A2.568,2.568,0,0,1,5,46.851V13.561A2.568,2.568,0,0,1,7.561,11H117.42A2.635,2.635,0,0,1,120.237,13.561ZM35.73,28.926v72.983l4.866,3.329,5.89-4.1h0c.128,0,.128-.128.256-.128l.128-.128c.128,0,.128,0,.256-.128h1.28c.128,0,.128,0,.256.128.128,0,.128,0,.256.128.128,0,.128,0,.128.128.128,0,.128.128.256.128h0l5.89,4.1,5.89-4.1h0c.128,0,.128-.128.256-.128l.128-.128c.128,0,.128,0,.256-.128H63c.128,0,.128,0,.256.128.128,0,.128,0,.256.128.128,0,.128,0,.128.128.128,0,.128.128.256.128h0l5.89,4.1,5.89-4.1h0c.128,0,.128-.128.256-.128s.128-.128.256-.128.128,0,.256-.128c.128,0,.128,0,.256-.128h1.024c.128,0,.128,0,.256.128.128,0,.128,0,.256.128.128,0,.128.128.256.128s.128.128.256.128h0l5.89,4.1,4.866-3.585V28.926Zm58.9,15.365h20.487V16.122H10.122V44.291H30.608V28.926H22.926v5.122a2.561,2.561,0,1,1-5.122,0V26.365A2.568,2.568,0,0,1,20.365,23.8h84.507a2.568,2.568,0,0,1,2.561,2.561v7.682a2.561,2.561,0,1,1-5.122,0V28.926H94.629Z" transform="translate(-5 -11)" fill="#fa1f35"/>
</svg>
