<svg xmlns="http://www.w3.org/2000/svg" width="117.188" height="103" viewBox="0 0 117.188 103">
  <g id="Layer_2" data-name="Layer 2" transform="translate(-1 -3)">
    <rect id="Rectangle_338" data-name="Rectangle 338" width="7.813" height="7.813" rx="1" transform="translate(90.766 69.719)" fill="#fa1f35"/>
    <path id="Path_1024" data-name="Path 1024" d="M108.54,88.938H10.649A9.648,9.648,0,0,1,1,79.29V12.648A9.648,9.648,0,0,1,10.649,3H108.54a9.648,9.648,0,0,1,9.648,9.648V79.29a9.648,9.648,0,0,1-9.648,9.648ZM10.649,10.813a1.836,1.836,0,0,0-1.836,1.836V79.29a1.836,1.836,0,0,0,1.836,1.836H108.54a1.836,1.836,0,0,0,1.836-1.836V12.648a1.836,1.836,0,0,0-1.836-1.836Z" transform="translate(0 0)" fill="#fa1f35"/>
    <rect id="Rectangle_339" data-name="Rectangle 339" width="107" height="9" transform="translate(5.892 56)" fill="#fa1f35"/>
    <rect id="Rectangle_340" data-name="Rectangle 340" width="54" height="9" rx="1" transform="translate(31.892 97)" fill="#fa1f35"/>
    <rect id="Rectangle_341" data-name="Rectangle 341" width="7.813" height="15.625" transform="translate(43.422 83.743)" fill="#fa1f35"/>
    <rect id="Rectangle_342" data-name="Rectangle 342" width="7.813" height="15.625" transform="translate(67.836 83.743)" fill="#fa1f35"/>
  </g>
</svg>
