<svg xmlns="http://www.w3.org/2000/svg" width="99.98" height="100" viewBox="0 0 99.98 100">
  <path id="Nota_Tagih" data-name="Nota Tagih" d="M56.989,72H27a5,5,0,0,0,0,10H56.989a5,5,0,1,0,0-10Zm-20-29.994h10a5,5,0,1,0,0-10h-10a5,5,0,0,0,0,10Zm59.988,10h-15V7.015a5,5,0,0,0-7.5-4.349l-15,8.6-15-8.6a5,5,0,0,0-5,0l-15,8.6-15-8.6A5,5,0,0,0,2,7.015V87a15,15,0,0,0,15,15H86.983a15,15,0,0,0,15-15V57A5,5,0,0,0,96.981,52.006ZM17,92a5,5,0,0,1-5-5V15.663l10,5.7a5.4,5.4,0,0,0,5,0l15-8.6,15,8.6a5.4,5.4,0,0,0,5,0l10-5.7V87a15,15,0,0,0,.9,5Zm74.985-5a5,5,0,1,1-10,0V62h10ZM56.989,52.006H27a5,5,0,1,0,0,10H56.989a5,5,0,1,0,0-10Z" transform="translate(-2 -1.996)" fill="#fa1f35"/>
</svg>
