<svg xmlns="http://www.w3.org/2000/svg" width="99.999" height="100" viewBox="0 0 99.999 100">
  <path id="SPB" d="M50.6.53a3.345,3.345,0,0,0-2.005.622L35.46,10.53H17.2a3.334,3.334,0,0,0-3.336,3.337v12.09L1.926,34.484A3.334,3.334,0,0,0,.529,37.2v60a3.334,3.334,0,0,0,3.333,3.333H30.526c4.506.063,4.506-6.728,0-6.667H15.2L93.862,43.3V83.862a9.906,9.906,0,0,1-10,10H57.2c-4.506-.063-4.506,6.728,0,6.667H83.862a16.7,16.7,0,0,0,16.667-16.667V37.2a3.334,3.334,0,0,0-1.4-2.712l-11.94-8.528V13.866a3.334,3.334,0,0,0-3.333-3.337H65.6L52.465,1.151A3.335,3.335,0,0,0,50.6.53Zm-.068,7.428,3.6,2.572h-7.2ZM20.535,17.2h59.99V43.941L50.418,63.3,20.535,44Zm43.525,10q-.1,0-.2.006H37.192a3.334,3.334,0,1,0,0,6.654H63.865a3.334,3.334,0,1,0,.2-6.66Zm-50.195,6.95v5.544L9.79,37.059Zm73.326,0,4.059,2.9-4.059,2.607Zm-50,6.38a3.334,3.334,0,0,0,0,6.667H50.529a3.334,3.334,0,1,0,0-6.667Zm-30,2.79L44.262,67.254,7.2,91.085ZM43.862,93.862A3.333,3.333,0,1,0,47.2,97.2,3.333,3.333,0,0,0,43.862,93.862Z" transform="translate(-0.529 -0.529)" fill="#fa1f35" fill-rule="evenodd"/>
</svg>
