<svg xmlns="http://www.w3.org/2000/svg" width="129.989" height="129.989" viewBox="0 0 129.989 129.989">
  <g id="Group_2943" data-name="Group 2943" transform="translate(-27.354 -1105.511)">
    <path id="Path_95" data-name="Path 95" d="M114,114A25,25,0,1,0,89,89,25.073,25.073,0,0,0,114,114Zm0,12.5c-16.562,0-50,8.438-50,25V164H164V151.5C164,134.938,130.562,126.5,114,126.5Z" transform="translate(-33.646 1068.5)" fill="none" stroke="#fa1f35" stroke-width="6"/>
    <g id="Layer_2" data-name="Layer 2" transform="translate(103.365 1105.511)">
      <g id="star">
        <rect id="Rectangle_51" data-name="Rectangle 51" width="53.979" height="53.979" transform="translate(53.979) rotate(90)" fill="#fa1f35" opacity="0"/>
        <path id="Path_96" data-name="Path 96" d="M36.951,44.738a2.249,2.249,0,0,1-1.035-.247l-11.47-6.005-11.47,6.005a2.249,2.249,0,0,1-3.261-2.384l2.249-12.662-9.266-9a2.215,2.215,0,0,1,1.259-3.778L16.776,14.8,22.421,3.265a2.249,2.249,0,0,1,4.048,0L32.183,14.78,45,16.647a2.215,2.215,0,0,1,1.259,3.778l-9.266,9,2.249,12.662a2.226,2.226,0,0,1-2.294,2.654Z" transform="translate(2.544 2.493)" fill="#fa1f35"/>
      </g>
    </g>
  </g>
</svg>
