<svg xmlns="http://www.w3.org/2000/svg" width="108.106" height="97.164" viewBox="0 0 108.106 97.164">
  <g id="Ship_Arrival" data-name="Ship Arrival" transform="translate(-152.123 -150.275)">
    <g id="g30" transform="translate(152.123 150.275)">
      <path id="path20" d="M236.313,179.957,247,147.494c.493-1.522-.226-3.31-1.332-3.312h-7.44c-25.82,0-3.866.05-23.626,0h-5.952v-20.59c0-1.264-.666-2.288-1.488-2.288h-5.952v-6.863c0-1.263-.666-2.288-1.488-2.288h-4.464V100.715c0-1.263-.666-2.288-1.488-2.288s-1.488,1.024-1.488,2.288v3.163l-.822-.635c-.735-.565-1.63-.107-2,1.024a2.959,2.959,0,0,0,.666,3.071l2.154,1.653v3.163h-1.488c-.822,0-1.488,1.024-1.488,2.288V121.3h-2.976c-.822,0-1.488,1.024-1.488,2.288v20.59H177.4c-.968,0-1.678,1.4-1.443,2.843l5.489,33.762,54.01-.831c.822-.013-1.505-1.2-1.505.061s.666-.28,1.488-.28h.761c.055-1.54.113,2.315.113.219Zm-44.032-63.227h5.952V121.3h-5.952Zm-4.464,9.151h17.857v2.288H195.257c-.822,0-1.488,1.024-1.488,2.288v9.151c0,1.264.666,2.288,1.488,2.288h10.416v2.288H187.817Zm17.857,6.863v4.576h-8.928v-4.576Zm27.314,47.213-48.472.831-5.208-32.029h63.954Z" transform="translate(-175.912 -98.427)" fill="#fa1f35"/>
      <path id="path22" d="M209.619,248.314h-11.9c-1.982,0-1.982,4.573,0,4.576h11.9c.821,0,1.487-1.025,1.487-2.288S210.44,248.315,209.619,248.314Z" transform="translate(-188.786 -193.408)" fill="#fa1f35"/>
      <path id="path24" d="M243.886,248.314H242.4c-1.982,0-1.982,4.573,0,4.576h1.488c.821,0,1.487-1.025,1.487-2.288S244.707,248.315,243.886,248.314Z" transform="translate(-217.1 -193.408)" fill="#fa1f35"/>
      <path id="path943" d="M321.953,310.259a9.69,9.69,0,0,1-12.327,0,13.476,13.476,0,0,0-16.827,0,9.688,9.688,0,0,1-12.325,0,13.477,13.477,0,0,0-16.827,0,9.691,9.691,0,0,1-12.328,0,12.968,12.968,0,0,0-8.413-2.949,2.616,2.616,0,0,0,0,5.162,9.163,9.163,0,0,1,6.163,2.213,13.476,13.476,0,0,0,16.827,0,9.689,9.689,0,0,1,12.327,0,13.476,13.476,0,0,0,16.826,0,9.689,9.689,0,0,1,12.326,0,13.476,13.476,0,0,0,16.826,0C326.068,313.175,324.575,309.243,321.953,310.259Z" transform="translate(-216.98 -230.792)" fill="#fa1f35"/>
      <path id="path945" d="M321.953,338.44a9.69,9.69,0,0,1-12.327,0,13.476,13.476,0,0,0-16.827,0,9.688,9.688,0,0,1-12.325,0,13.476,13.476,0,0,0-16.827,0,9.691,9.691,0,0,1-12.328,0,12.968,12.968,0,0,0-8.413-2.949,2.616,2.616,0,0,0,0,5.162,9.163,9.163,0,0,1,6.163,2.213,13.476,13.476,0,0,0,16.827,0,9.689,9.689,0,0,1,12.327,0,13.477,13.477,0,0,0,16.826,0,9.689,9.689,0,0,1,12.326,0,13.477,13.477,0,0,0,16.826,0C326.194,341.595,324.544,337.572,321.953,338.44Z" transform="translate(-216.98 -248.65)" fill="#fa1f35"/>
      <path id="path867" d="M254.472,310.259a9.69,9.69,0,0,1-12.327,0,13.476,13.476,0,0,0-16.826,0,9.688,9.688,0,0,1-12.325,0,13.477,13.477,0,0,0-16.827,0,9.691,9.691,0,0,1-12.328,0c-4.6.029-3.558,3.5-2.25,4.426a13.476,13.476,0,0,0,16.827,0,9.689,9.689,0,0,1,12.327,0,13.476,13.476,0,0,0,16.826,0,9.689,9.689,0,0,1,12.326,0,13.477,13.477,0,0,0,16.827,0C258.587,313.175,257.093,309.243,254.472,310.259Z" transform="translate(-178.803 -230.792)" fill="#fa1f35"/>
      <path id="path869" d="M254.874,338.44a9.69,9.69,0,0,1-12.327,0,13.476,13.476,0,0,0-16.826,0,9.688,9.688,0,0,1-12.325,0,13.477,13.477,0,0,0-16.827,0,9.691,9.691,0,0,1-12.328,0c-3.033-.887-4.03,3.331-2.25,4.426a13.476,13.476,0,0,0,16.827,0,9.689,9.689,0,0,1,12.327,0,13.477,13.477,0,0,0,16.826,0,9.689,9.689,0,0,1,12.326,0,13.477,13.477,0,0,0,16.827,0C259.116,341.595,257.466,337.572,254.874,338.44Z" transform="translate(-179.206 -248.65)" fill="#fa1f35"/>
    </g>
    <g id="g963" transform="translate(256.71 232.275) rotate(180)">
      <g id="g897" transform="translate(0 0)">
        <g id="g895">
          <path id="path893" d="M33.621,1.623V3.317c-.024,2.426-.019,2.432,0,6.13v19.8c0,1.679-1.079,3.041-2.409,3.041H23.629L21.6,45.412a5.611,5.611,0,0,1,.98,1.447,6.972,6.972,0,0,1,.124,5.616c-1.576,3.759-4.646,6.094-8.013,6.094s-6.438-2.335-8.013-6.094A6.972,6.972,0,0,1,6.8,46.859a5.608,5.608,0,0,1,.98-1.447L5.751,32.289h-3.3c-1.331,0-2.409-.48-2.409-2.16s1.079-2.184,2.409-2.184H30.282V22.963H2.06c-1.331,0-2.06-.3-2.06-1.984s.73-1.986,2.06-1.986H30.282V3.1c-.041-3.043-.008-.19-.01-3.1C32.59-.006,31.32.011,33.6.011c.037,2.642-.011-.419.022,1.612ZM14.69,54.572c1.408,0,4.478-.879,4.628-3.746-.492-3.266-9.37-3.207-9.553,0C9.781,53.794,13.282,54.572,14.69,54.572ZM9.674,33.866l1.439,10.191h7.444l1.211-10.191Z" fill="#fa1f35"/>
        </g>
      </g>
    </g>
  </g>
</svg>
