<svg xmlns="http://www.w3.org/2000/svg" width="22.028" height="26.414" viewBox="0 0 22.028 26.414">
  <defs>
    <style>
      .cls-1 {
        fill: #fff;
      }
    </style>
  </defs>
  <path id="barometer" class="cls-1" d="M0,11.014A10.792,10.792,0,0,1,.875,6.727,10.926,10.926,0,0,1,3.23,3.215,11.233,11.233,0,0,1,6.748.875a10.873,10.873,0,0,1,8.545,0,10.842,10.842,0,0,1,5.859,5.859,10.759,10.759,0,0,1,.875,4.28,10.552,10.552,0,0,1-2.164,6.523,10.846,10.846,0,0,1-5.577,3.927v4.95H7.911V21.521a10.785,10.785,0,0,1-5.7-3.921A10.59,10.59,0,0,1,0,11.014Zm2.426,0a8.151,8.151,0,0,0,2.539,6.007,8.223,8.223,0,0,0,6.05,2.524,8.605,8.605,0,0,0,7.447-4.252,8.46,8.46,0,0,0,.472-7.6,8.607,8.607,0,0,0-1.841-2.736,8.771,8.771,0,0,0-2.75-1.833,8.427,8.427,0,0,0-6.65,0A8.769,8.769,0,0,0,4.949,4.957,8.613,8.613,0,0,0,3.109,7.693,8.309,8.309,0,0,0,2.426,11.014Zm.875.536V10.464H6.558V11.55ZM4.936,6.233l.789-.776L8.01,7.742l-.776.789Zm3.807,7.418A2.3,2.3,0,0,1,9.4,12.015,2.216,2.216,0,0,1,11,11.3l4.1-6.755.987.521-3.032,7.263a2.39,2.39,0,0,1-.3,3,2.3,2.3,0,0,1-1.678.684,2.335,2.335,0,0,1-2.341-2.355Zm1.974-7.023V3.37h1.044V6.628H10.718Zm4.414,4.908V10.421H18.39v1.114Z"/>
</svg>
