<svg xmlns="http://www.w3.org/2000/svg" width="25.268" height="27.709" viewBox="0 0 25.268 27.709">
  <path id="Icon_material-directions-boat" data-name="Icon material-directions-boat" d="M24.652,25.559a8.46,8.46,0,0,1-4.812-1.588,8.275,8.275,0,0,1-9.624,0,8.46,8.46,0,0,1-4.812,1.588H3v2.406H5.405a10.62,10.62,0,0,0,4.812-1.191,10.529,10.529,0,0,0,9.624,0,10.468,10.468,0,0,0,4.812,1.191h2.406V25.559ZM5.345,23.153h.06a6.558,6.558,0,0,0,4.812-2.406,6.558,6.558,0,0,0,4.812,2.406,6.558,6.558,0,0,0,4.812-2.406,6.558,6.558,0,0,0,4.812,2.406h.06l2.274-8.036a1.267,1.267,0,0,0-.072-.938,1.2,1.2,0,0,0-.722-.6l-1.54-.505V7.515a2.413,2.413,0,0,0-2.406-2.406H18.638V1.5H11.42V5.109H7.811A2.413,2.413,0,0,0,5.405,7.515v5.558l-1.552.505a1.2,1.2,0,0,0-.722.6,1.211,1.211,0,0,0-.072.938ZM7.811,7.515H22.247V12.29l-7.218-2.37L7.811,12.29Z" transform="translate(-2.391 -0.9)" fill="none" stroke="#000" stroke-width="1.2"/>
</svg>
