<svg xmlns="http://www.w3.org/2000/svg" width="27.305" height="24.266" viewBox="0 0 27.305 24.266">
  <defs>
    <style>
      .cls-1 {
        fill: #fff;
      }
    </style>
  </defs>
  <path id="Icon_awesome-edit" data-name="Icon awesome-edit" class="cls-1" d="M19.085,3.946l4.276,4.276a.463.463,0,0,1,0,.654L13.008,19.229l-4.4.488A.922.922,0,0,1,7.589,18.7l.488-4.4L18.431,3.946A.463.463,0,0,1,19.085,3.946Zm7.679-1.086L24.451.547a1.854,1.854,0,0,0-2.617,0L20.156,2.226a.464.464,0,0,0,0,.654l4.276,4.276a.463.463,0,0,0,.654,0l1.678-1.678a1.854,1.854,0,0,0,0-2.617ZM18.2,16.414v4.826H3.034V6.07H13.927a.583.583,0,0,0,.4-.166l1.9-1.9a.569.569,0,0,0-.4-.972H2.275A2.276,2.276,0,0,0,0,5.312V22a2.276,2.276,0,0,0,2.275,2.275H18.962A2.276,2.276,0,0,0,21.237,22v-7.48a.57.57,0,0,0-.972-.4l-1.9,1.9A.583.583,0,0,0,18.2,16.414Z" transform="translate(0 -0.007)"/>
</svg>
