<svg xmlns="http://www.w3.org/2000/svg" width="50.25" height="44.255" viewBox="0 0 50.25 44.255">
  <path id="Path_641" data-name="Path 641" d="M48.612,64.966c-11.231,0-18.8-3.929-20.76-10.78-1.415-4.943.606-9.81,3.291-11.484a4.355,4.355,0,0,1,2.568-.655,6.09,6.09,0,0,1,3.49,1.736c2.294,2.07,2.115,6.731,2,9.814-.07,1.821-.111,2.921.264,3.727A2.087,2.087,0,0,0,41.9,58.455c1.619-.354,3.375-2.295,4.479-3.993a15.179,15.179,0,0,0,2.52-8.057,14.4,14.4,0,0,0-5.541-11.784,20.859,20.859,0,0,0-12.746-4.078A29.543,29.543,0,0,0,10.263,38.68C5.681,43.019.182,51.026.008,64.534c-.043,3.353.128,6.307,0,8.531A1.639,1.639,0,0,0,1.646,74.8H48.612a1.638,1.638,0,0,0,1.638-1.638V66.6A1.638,1.638,0,0,0,48.612,64.966ZM3.331,71.519c.016-2.051-.08-4.391-.048-6.943.286-22.136,15.841-30.872,27.3-30.757C38.1,33.887,45.664,37.8,45.62,46.388A12.112,12.112,0,0,1,42.456,54.2c.006-.161.012-.32.018-.473.141-3.693.354-9.275-3.077-12.372a9.007,9.007,0,0,0-6.154-2.6A22.831,22.831,0,0,0,21.4,41.742a23.306,23.306,0,0,0-11.59,20.1,22.5,22.5,0,0,0,2.233,9.678Zm12.423,0a19.536,19.536,0,0,1,2.779-23.382,19.2,19.2,0,0,0-2.025,7.718A18.8,18.8,0,0,0,20,67.928a16.612,16.612,0,0,0,3.594,3.592Zm31.219,0H32.255c-9.09-1.318-12.816-8.722-12.473-15.5a14.846,14.846,0,0,1,5.537-11.093,15.3,15.3,0,0,0-.617,10.16,16.032,16.032,0,0,0,7.222,9.233c3.865,2.392,8.921,3.7,15.049,3.9v3.3Z" transform="translate(0 -30.541)" fill="#fff"/>
</svg>
