<svg xmlns="http://www.w3.org/2000/svg" width="22.463" height="25.558" viewBox="0 0 22.463 25.558">
  <g id="Group_71" data-name="Group 71" transform="translate(-37 -260)">
    <g id="headphones" transform="translate(37 260)">
      <g id="Group_3" data-name="Group 3" transform="translate(2.995 10.483)">
        <g id="Group_2" data-name="Group 2">
          <path id="Path_1" data-name="Path 1" d="M93.246,210A2.249,2.249,0,0,0,91,212.246v6.09a2.246,2.246,0,0,0,4.493,0v-6.09A2.249,2.249,0,0,0,93.246,210Z" transform="translate(-91 -210)"/>
        </g>
      </g>
      <g id="Group_5" data-name="Group 5" transform="translate(0 12.098)">
        <g id="Group_4" data-name="Group 4">
          <path id="Path_2" data-name="Path 2" d="M32.5,243a3.715,3.715,0,0,1,.064-.631A2.242,2.242,0,0,0,31,244.494v3.095a2.242,2.242,0,0,0,1.561,2.128,3.715,3.715,0,0,1-.064-.631Z" transform="translate(-31 -242.366)"/>
        </g>
      </g>
      <g id="Group_7" data-name="Group 7" transform="translate(8.985 10.483)">
        <g id="Group_6" data-name="Group 6">
          <path id="Path_3" data-name="Path 3" d="M219.237,210a2.249,2.249,0,0,0-2.246,2.246v6.09a2.249,2.249,0,0,0,2.246,2.246,2.216,2.216,0,0,0,.644-.105,2.242,2.242,0,0,1-2.141,1.6h-2.384a2.246,2.246,0,1,0,0,1.5h2.384a3.748,3.748,0,0,0,3.744-3.744v-7.588A2.249,2.249,0,0,0,219.237,210Z" transform="translate(-211 -210)"/>
        </g>
      </g>
      <g id="Group_9" data-name="Group 9" transform="translate(20.902 12.098)">
        <g id="Group_8" data-name="Group 8">
          <path id="Path_4" data-name="Path 4" d="M449.722,242.366a3.713,3.713,0,0,1,.064.631v6.09a3.713,3.713,0,0,1-.064.631,2.242,2.242,0,0,0,1.561-2.128v-3.095A2.242,2.242,0,0,0,449.722,242.366Z" transform="translate(-449.722 -242.366)"/>
        </g>
      </g>
      <g id="Group_11" data-name="Group 11">
        <g id="Group_10" data-name="Group 10">
          <path id="Path_5" data-name="Path 5" d="M42.232,0A11.244,11.244,0,0,0,31,11.232v.019a3.708,3.708,0,0,1,1.532-.7,9.723,9.723,0,0,1,19.4,0,3.709,3.709,0,0,1,1.532.7v-.019A11.244,11.244,0,0,0,42.232,0Z" transform="translate(-31)"/>
        </g>
      </g>
    </g>
  </g>
</svg>
