<svg xmlns="http://www.w3.org/2000/svg" width="23.248" height="25.053" viewBox="0 0 23.248 25.053">
  <defs>
    <style>
      .cls-1 {
        fill: none;
        stroke: #000;
        stroke-width: 2px;
      }
    </style>
  </defs>
  <path id="Icon" class="cls-1" d="M44.151,198.491v-3.5a1.606,1.606,0,0,1,1.59-1.621h3.215a1.58,1.58,0,0,1,1.126.474,1.632,1.632,0,0,1,.466,1.145v3.5a1.405,1.405,0,0,0,.4.993,1.361,1.361,0,0,0,.974.412h2.193a3.824,3.824,0,0,0,2.732-1.145,3.951,3.951,0,0,0,1.133-2.771v-9.972a2.857,2.857,0,0,0-1.006-2.175l-7.455-6.057a3.4,3.4,0,0,0-4.416.081l-7.289,5.973a2.855,2.855,0,0,0-1.081,2.178v9.96a3.9,3.9,0,0,0,3.864,3.93h2.144A1.393,1.393,0,0,0,44.12,198.5Z" transform="translate(-35.731 -175.843)"/>
</svg>
