<svg xmlns="http://www.w3.org/2000/svg" width="72.751" height="97.001" viewBox="0 0 72.751 97.001">
  <path id="Icon_awesome-file-upload" data-name="Icon awesome-file-upload" d="M42.438,25.766V0H4.547A4.536,4.536,0,0,0,0,4.547V92.454A4.536,4.536,0,0,0,4.547,97H68.2a4.536,4.536,0,0,0,4.547-4.547V30.313H46.985A4.56,4.56,0,0,1,42.438,25.766ZM54.787,66.69H42.438V81.847a3.03,3.03,0,0,1-3.031,3.031H33.344a3.03,3.03,0,0,1-3.031-3.031V66.69H17.964a3.032,3.032,0,0,1-2.135-5.184L34.1,43.376a3.23,3.23,0,0,1,4.555,0L56.918,61.507A3.03,3.03,0,0,1,54.787,66.69Zm16.638-46.8L52.877,1.326A4.544,4.544,0,0,0,49.656,0H48.5V24.25h24.25V23.095A4.532,4.532,0,0,0,71.425,19.893Z" fill="#1d907e"/>
</svg>
