<svg id="Icon" xmlns="http://www.w3.org/2000/svg" width="36.971" height="38.372" viewBox="0 0 36.971 38.372">
  <defs>
    <style>
      .cls-1 {
        fill: #222649;
      }

      .cls-2 {
        fill: #e8264f;
      }
    </style>
  </defs>
  <path id="Shape_48" data-name="Shape 48" class="cls-1" d="M1389.19,80.322a6.691,6.691,0,0,1-4.464-2.507,1.345,1.345,0,0,1,.209-1.88,1.307,1.307,0,0,1,1.84.2l.014.018a4.051,4.051,0,0,0,2.709,1.516,4.1,4.1,0,0,0,3.021-.854,3.655,3.655,0,0,0,.682-.666,1.311,1.311,0,0,1,1.844-.214l.013.01a1.344,1.344,0,0,1,.2,1.882,6.307,6.307,0,0,1-1.15,1.118,6.685,6.685,0,0,1-4.926,1.383Zm-7.725-7.923a9.383,9.383,0,0,1-5.912-2.922,7.794,7.794,0,0,1-1.776-5.1v-.457a7.869,7.869,0,0,1,1.284-3.921l.128-.165a7.4,7.4,0,0,0,1.78-3.493l-.029.117V55.426l.023-1.151c.018-.5.044-.959.081-1.387a11.479,11.479,0,0,1,4.272-7.768A13.648,13.648,0,0,1,1389.995,42h.138a13.663,13.663,0,0,1,8.679,3.119,11.556,11.556,0,0,1,4.278,7.787c.033.384.048.727.054,1.241v1.882l.017.384.086.359a7.487,7.487,0,0,0,1.391,2.745l.288.34.119.152a7.764,7.764,0,0,1,1.3,3.975v.767a7.8,7.8,0,0,1-1.851,4.8,9.165,9.165,0,0,1-5.838,2.853,79.649,79.649,0,0,1-8.608.468A79.582,79.582,0,0,1,1381.465,72.4ZM1377.2,61.567h0l-.147.247a5.159,5.159,0,0,0-.6,1.8l-.032.366v.42a5.1,5.1,0,0,0,1.1,3.29,6.69,6.69,0,0,0,4.215,2.045,77.371,77.371,0,0,0,8.319.451,77.508,77.508,0,0,0,8.348-.453,6.576,6.576,0,0,0,4.132-1.978,5.119,5.119,0,0,0,1.175-3.4v-.313a4.963,4.963,0,0,0-.833-2.538l.029.048-.264-.311A10.174,10.174,0,0,1,1400.7,57.4l-.125-.529-.025-.178c-.021-.282-.031-.51-.036-.767V54.2c0-.438-.015-.733-.042-1.049a10.177,10.177,0,0,0-10.342-8.478h-.136a10.14,10.14,0,0,0-10.317,8.464c-.021.234-.039.491-.056.81l-.029.9-.013,1.763-.027.272a10.1,10.1,0,0,1-2.338,4.669h0Z" transform="translate(-1373.776 -41.999)"/>
  <circle id="Ellipse_8" data-name="Ellipse 8" class="cls-2" cx="7.5" cy="7.5" r="7.5" transform="translate(21.971 1.396)"/>
</svg>
