<svg id="locked-padlock-" xmlns="http://www.w3.org/2000/svg" width="22.738" height="34.914" viewBox="0 0 22.738 34.914">
  <defs>
    <style>
      .cls-1 {
        fill: #2e2e2e;
      }
    </style>
  </defs>
  <path id="Path_86" data-name="Path 86" class="cls-1" d="M245.344,11.59a12.921,12.921,0,0,1,3.093,1.853V8.084A8.093,8.093,0,0,0,240.354,0h-.124a8.092,8.092,0,0,0-8.08,8.084v5.36a12.922,12.922,0,0,1,3.093-1.853c.3-.128.61-.245.919-.349V8.084a4.075,4.075,0,0,1,4.072-4.072h.124a4.075,4.075,0,0,1,4.072,4.072v3.161C244.735,11.345,245.044,11.461,245.344,11.59Z" transform="translate(-228.925)"/>
  <path id="Path_87" data-name="Path 87" class="cls-1" d="M151.75,314.773a11.388,11.388,0,1,0,3.225-7.935A11.37,11.37,0,0,0,151.75,314.773Zm8.441-2.295a2.929,2.929,0,1,1,4.485,2.555.8.8,0,0,0-.357.842l.871,4.128a.4.4,0,0,1-.393.485h-3.354a.4.4,0,0,1-.393-.485l.871-4.128a.807.807,0,0,0-.357-.847,2.923,2.923,0,0,1-1.328-1.978A3,3,0,0,1,160.191,312.478Z" transform="translate(-151.75 -291.229)"/>
</svg>
