<svg id="Kala_Jivam_Asti_FLAT" data-name="Kala Jivam Asti FLAT" xmlns="http://www.w3.org/2000/svg" width="96.063" height="96.062" viewBox="0 0 96.063 96.062">
  <path id="Path_589" data-name="Path 589" d="M454.171,279.536a6.778,6.778,0,0,0,1.258.923,16.31,16.31,0,0,1,2.381,1.67,10.032,10.032,0,0,1,1.754,1.892,5.6,5.6,0,0,1,.852,1.768,1.2,1.2,0,0,1,.031.289l.025.4-.3,0a1.413,1.413,0,0,1-.749-.255l-.054-.033a7.341,7.341,0,0,1-1.249-.979,21.437,21.437,0,0,1-1.883-2.063,3.7,3.7,0,0,0-.18,1.946,3.471,3.471,0,0,0,1.218,2.044,6.976,6.976,0,0,0,1.346.881c.6.32,1.308.7,2,1.1a5.8,5.8,0,0,1,1.446,1.107c1.111.04,8.366.031,9.622-.013a7.047,7.047,0,0,0,.2-1.293l.01-.092a8.758,8.758,0,0,0-.1-2.335,6.465,6.465,0,0,0-1.5-3.072,10.811,10.811,0,0,0-2.67-2.26,19.623,19.623,0,0,0-5.4-2.258c.01.08.025.161.042.249a7.5,7.5,0,0,0,1.729,3.5l.383.46-.071.159a.626.626,0,0,1-.563.364.827.827,0,0,1-.684-.236,4.5,4.5,0,0,1-.54-.642,5.272,5.272,0,0,1-.63-1.423c-.22-.753-.425-1.526-.611-2.3a9.648,9.648,0,0,0-.86-2.382,6.769,6.769,0,0,0-3.534-3.175c.013.01.025.021.036.031.18.151.356.31.527.473s.333.333.492.506.3.327.433.5l.086.105a2.72,2.72,0,0,1,.347.492l.19.373-.417.029a.316.316,0,0,1-.291-.077c-.132-.119-.245-.224-.356-.331a10.1,10.1,0,0,0-4.051-2.4c-.027-.008-.054-.013-.08-.019,0,0-.006.01-.01.013a7.191,7.191,0,0,0-.835,2.061,4.958,4.958,0,0,0-.08,1.95A4.081,4.081,0,0,0,454.171,279.536Z" transform="translate(-413.832 -268.573)" fill="#fff"/>
  <path id="Path_590" data-name="Path 590" d="M501.643,417.706l2.053-19.229a.753.753,0,0,1,.071-.232l.1-.261h.985l.119-.207c.144-.249.283-.49.414-.737.063-.123.136-.239.207-.356s.155-.255.22-.385H493.54c.186.584.582,1.628.8,2.084l.846.042.054.327c.013.078.027.149.032.222.09,1.166.18,2.329.268,3.5l.6,8.145q.061.848.125,1.7l.389,5.077c.088,1.163.176,2.323.257,3.486a.845.845,0,0,0,.5.749,1.787,1.787,0,0,0,.477.169,4.763,4.763,0,0,0,2.478-.234,1.723,1.723,0,0,0,.27-.124,1.515,1.515,0,0,0,.854-1.565,3.085,3.085,0,0,1-.013-.487C501.526,418.823,501.586,418.263,501.643,417.706Zm-.266-18.851-.017.559q-.009.362-.023.724l-.063,1.465c-.027.6-.054,1.189-.077,1.785l-.113,2.974q-.063,1.692-.128,3.382-.06,1.557-.128,3.114-.063,1.474-.122,2.947c-.033.808-.061,1.616-.09,2.425l-.059,1.664c-.008.182-.019.362-.035.557l-.034.519-.241.017c-.326.023-.628.033-.923.033-.276,0-.544-.008-.814-.015l-.125,0-.08-.1a.79.79,0,0,1-.167-.59l0-.082c-.029-1.155-.054-2.31-.08-3.465l-.044-1.959q-.1-4.312-.2-8.626l-.172-7.165a2.441,2.441,0,0,1,0-.312.745.745,0,0,1,.119-.364,2.391,2.391,0,0,1,1.155-.919,1.632,1.632,0,0,1,1.26.075,3.181,3.181,0,0,1,1.015.789A.732.732,0,0,1,501.377,398.855Z" transform="translate(-446.746 -368.129)" fill="#fff"/>
  <path id="Path_591" data-name="Path 591" d="M493.284,366.867l-.038,0q0,.057,0,.126a.853.853,0,0,1-.109.519l-.056.084-.1.029a1.452,1.452,0,0,1-.469.044,1.416,1.416,0,0,0-.243.008c0,.121,0,.243,0,.364,0,.333-.008.678.012,1.036l12.562,0a1.653,1.653,0,0,0,.216,0l.042-.006c0-.13,0-.262,0-.391,0-.331,0-.659,0-.992l-.634-.073-.065-.142a1.034,1.034,0,0,1-.077-.473c0-.055,0-.1,0-.136H494.011C493.77,366.863,493.527,366.863,493.284,366.867Z" transform="translate(-445.714 -344.331)" fill="#fff"/>
  <path id="Path_592" data-name="Path 592" d="M504.931,382.926l-.126,0-12.28,0c-.06,0-.121,0-.18,0l-.042,0a11.08,11.08,0,0,0,.008,1.674c.057,0,.121,0,.184,0l.144,0,12.2,0a2.136,2.136,0,0,0,.22,0,.194.194,0,0,0,.034,0,12.182,12.182,0,0,0-.008-1.676C505.033,382.924,504.983,382.924,504.931,382.926Z" transform="translate(-445.723 -357.312)" fill="#fff"/>
  <path id="Path_593" data-name="Path 593" d="M507.142,292.562a4.773,4.773,0,0,0,1.894.856,2.147,2.147,0,0,1,.483.169,5,5,0,0,0-1.827-2.275,6.757,6.757,0,0,0-2.541-1.042A6.742,6.742,0,0,0,507.142,292.562Z" transform="translate(-456.132 -282.406)" fill="#fff"/>
  <path id="Path_594" data-name="Path 594" d="M566.828,474.034a.606.606,0,0,0,.45-.174.7.7,0,0,0,.23-.477.694.694,0,0,0-.665-.712h-.015a.676.676,0,0,0-.668.647A.669.669,0,0,0,566.828,474.034Z" transform="translate(-505.457 -429.873)" fill="#fff"/>
  <path id="Path_595" data-name="Path 595" d="M297.241,249.21a48.031,48.031,0,1,0,48.031,48.031A48.086,48.086,0,0,0,297.241,249.21Zm24.608,87.312c-.224-.034-.448-.071-.672-.113a16.727,16.727,0,0,1-3.74-1.109,9.4,9.4,0,0,1-2.825-1.867c-.017-.017-.036-.035-.055-.052l-.167.107a23.686,23.686,0,0,1-10.716,3.936,18.8,18.8,0,0,1-7.044-.586A20.318,20.318,0,0,1,290.647,334c-.086-.057-.174-.115-.257-.166a26.386,26.386,0,0,1-13.927,4.847,46.668,46.668,0,0,1-14.55-11.449c.075-.021.149-.04.224-.063a27.978,27.978,0,0,0,4.438-1.649,9.993,9.993,0,0,0,3-2.051.45.45,0,0,1,.132-.092l.113-.065.169.019a42.028,42.028,0,0,0,7.067,1.863,31.194,31.194,0,0,0,6.705.5c-.168-.157-.339-.312-.509-.469-.5-.456-1.009-.925-1.5-1.411a52.827,52.827,0,0,1-3.729-4.252,16.1,16.1,0,0,1-2.6-4.618c-.031-.086-.067-.171-.1-.253l0-.006a30.016,30.016,0,0,1-10.719-5.248l-.41.345a16.129,16.129,0,0,1-2.909,1.959,11.856,11.856,0,0,1-4.42,1.331,11.158,11.158,0,0,1-3.271-.2,46.366,46.366,0,1,1,88.4-3.5,7.6,7.6,0,0,1-2.124-.287,13.939,13.939,0,0,1-2.923-1.212,23.994,23.994,0,0,1-3.792-2.578c-.034-.029-.071-.055-.105-.084-.025.063-.05.126-.071.188a10.57,10.57,0,0,1-1.049,2.132,7.481,7.481,0,0,1-5.665,3.507c-.23.027-.462.05-.693.075l-.065.006-.111.345c-.126.395-.253.787-.395,1.174a8.132,8.132,0,0,1-.841,1.632,8.822,8.822,0,0,1-1.117,1.387,7.469,7.469,0,0,1-1.425,1.164c-.35.211-.709.408-1.071.605l-.394.216a13.435,13.435,0,0,1-1.7,4.635,17.619,17.619,0,0,1-2.706,3.534c-.023.023-.05.048-.075.069a.4.4,0,0,0,.044.015,14.733,14.733,0,0,0,3.332.8,13.29,13.29,0,0,0,4.374-.188,13.523,13.523,0,0,0,4.152-1.666c.105-.063.211-.124.318-.186l.295-.168.14.086c1.626.992,3.055,1.787,4.417,2.457A46.81,46.81,0,0,1,321.85,336.522Z" transform="translate(-249.21 -249.21)" fill="#fff"/>
  <path id="Path_596" data-name="Path 596" d="M401.533,455.167c.044-.207.08-.414.117-.613l.067-.364.069-.063a.441.441,0,0,1,.128-.1l.153-.065a7.838,7.838,0,0,0,4.4-4.332,10.6,10.6,0,0,0,.781-4.321,18.358,18.358,0,0,0-.621-4.416.131.131,0,0,0-.012-.033,7.8,7.8,0,0,0-1.181.255,9.254,9.254,0,0,0-4.805,3.158,9.7,9.7,0,0,0-1.647,3.229l-.025.1a.893.893,0,0,1-.22.454l-.059.058-.082.015a.881.881,0,0,1-.214.027q-.132,0-.264-.006a13.938,13.938,0,0,1-3.648-.682A10.741,10.741,0,0,1,389.157,444c.013.184.027.368.042.552a11.32,11.32,0,0,0,.8,3.407,8.486,8.486,0,0,0,5.146,4.949,12.732,12.732,0,0,0,3.2.676l.7.077,0,.339a1.2,1.2,0,0,1-.008.222,6.072,6.072,0,0,1-.437,1.48,6.642,6.642,0,0,1-3.97,3.652,10.711,10.711,0,0,1-4.033.588c-.64-.017-1.289-.086-1.892-.159a10.866,10.866,0,0,1-6.521-3.156,14.6,14.6,0,0,1-3.093-4.708c.052-.389.235-.735.722-.728.011.029.027.057.038.088l.048.115a14.576,14.576,0,0,0,2.306,3.85,10.012,10.012,0,0,0,5.64,3.43,13.755,13.755,0,0,0,4.57.232,7.693,7.693,0,0,0,2.85-.881A5.591,5.591,0,0,0,398,454.577a.5.5,0,0,0,.013-.059l-.385-.055c-.226-.033-.452-.063-.676-.1a10.415,10.415,0,0,1-5.284-2.392.5.5,0,0,0-.324-.124c-.4-.027-.8-.063-1.2-.113a23.325,23.325,0,0,1-4.232-.94.851.851,0,0,0-.1-.027c-.14.285-.264.58-.387.867-.149.352-.3.716-.487,1.067l-.079.15H383.7l-.46-.655c-.282-.4-.561-.8-.858-1.193a2.009,2.009,0,0,1-.427-1.2c-.006-.163-.021-.326-.038-.488l-.008-.071-.533-.27c-.647-.335-1.3-.672-1.942-1.011a1.662,1.662,0,0,1-.226-.149l-.234-.165.05-.188a4.024,4.024,0,0,1,3.034-2.861l.258-.033.059.312a1.446,1.446,0,0,1,.027.159l.345,3.878c.029.316.057.63.082.946a1.043,1.043,0,0,0,.216.576c.188.245.364.5.542.755l.569.8h.161l.055-.113q.385-.882.764-1.762a1.036,1.036,0,0,0,.073-.257c.034-.281.059-.565.084-.848l.335-3.859c.023-.266.05-.53.078-.8l.05-.5.293-.136c.1-.044.191-.086.281-.136l.218-.121a5.747,5.747,0,0,0,.642-.387,2.966,2.966,0,0,0,1.2-1.957,4.059,4.059,0,0,0-.021-1.423,3.449,3.449,0,0,0-1.145-2.028,4.836,4.836,0,0,0,0,.5,2.3,2.3,0,0,1-1.232,2.26,3.876,3.876,0,0,1-.684.3,6,6,0,0,1-2.093.266,2.962,2.962,0,0,1-1.26-.289,1.713,1.713,0,0,1-1.019-1.509c-.023-.506-.065-1.011-.109-1.515l-.012-.14c-.006-.077-.011-.151-.019-.224-.038.054-.077.107-.113.161a20.239,20.239,0,0,0-2.4,4.6,13.116,13.116,0,0,0-.85,4.1c-.008.262,0,.525.006.787,0,.146.008.289.01.435l0,.073a.654.654,0,0,1-.157.542l-.059.061-.084.017a1.492,1.492,0,0,1-1.766-.712,2.737,2.737,0,0,1-.245-.492,6.781,6.781,0,0,1-.211-.69,6.693,6.693,0,0,1-.025-2.8,8.946,8.946,0,0,1,2.392-4.742,18.925,18.925,0,0,1,1.685-1.494,4.279,4.279,0,0,1,1.728-.871l-.125-1.7c-.071-.915-.143-1.833-.21-2.748q-.106-1.428-.2-2.854l-.13-1.823c-.031-.425-.063-.848-.1-1.274l-.1-1.231q-.095-1.206-.184-2.415l-.23-3.212c0-.044-.006-.08-.01-.111a5.405,5.405,0,0,0-1,.088l-.264.038a26.812,26.812,0,0,0-5.573,1.406,29.832,29.832,0,0,0-5.68,2.819,1.159,1.159,0,0,1-.9.182,12.527,12.527,0,0,0-2.063-.216,14.933,14.933,0,0,0-4.746.527,10.986,10.986,0,0,0-5.131,3.089,13.216,13.216,0,0,0-2.926,5.4l.044-.031.107-.08a9.573,9.573,0,0,0,.9-.732,3.449,3.449,0,0,1,2.469-.973c.155,0,.314.01.477.025a8.227,8.227,0,0,1,3.509,1.3.978.978,0,0,1,.147.119l.076.073.044.14a.621.621,0,0,1,0,.188c-.015.086-.036.172-.057.26a45.08,45.08,0,0,0-1.381,8.751,33.391,33.391,0,0,0,.105,5.376,22.546,22.546,0,0,0,.806,4.154,14.77,14.77,0,0,0,2.739,5.3l.406.494c.521.638,1.061,1.3,1.611,1.925a35.288,35.288,0,0,0,5.1,4.857,22.033,22.033,0,0,0,12.311,4.616,27.261,27.261,0,0,0,5.945-.247,20.866,20.866,0,0,0,5.179-1.48,17.975,17.975,0,0,0,7.4-5.82A13.493,13.493,0,0,0,401.533,455.167ZM364.8,426.393c-.092.065-.176.123-.262.178a13.64,13.64,0,0,0-1.975,1.471c-.257.237-.519.508-.806.829a3.348,3.348,0,0,0-.605.959.568.568,0,0,1-.462.389c-.207.027-.412.05-.624.073l-.647.075-.033-.276a2.1,2.1,0,0,1,.1-.831,5.28,5.28,0,0,1,1.479-2.436,6.434,6.434,0,0,1,1.452-1.063,2.6,2.6,0,0,1,2.024-.19,1.649,1.649,0,0,1,.291.128.7.7,0,0,1,.163.113l.35.28Z" transform="translate(-331.626 -386.402)" fill="#fff"/>
  <path id="Path_597" data-name="Path 597" d="M541.953,425.485l-1.7,15.749c.063,0,.122.006.18,0,2.208-.075,4.407-.147,6.607-.228.53-.019,1.092-.054,1.762-.107,1.03-.08,2.063-.167,3.091-.266a21.5,21.5,0,0,0,2.647-.4,7.092,7.092,0,0,0,.753-.226l.067-.023a1.046,1.046,0,0,0,.5-.423,2.02,2.02,0,0,0,.182-1.427c-.063,0-.126-.006-.19-.008q-1.184-.006-2.367-.01l-7.107-.015c-.364,0-.728-.01-1.091-.017l-.1,0a.891.891,0,0,1-.341-.052.4.4,0,0,1-.211-.241l-.015-.027a.3.3,0,0,1,.172-.425,1.539,1.539,0,0,1,.567-.059l.113,0h.295l3.043,0,6.774,0c.249,0,.249-.124.149-.349a10.765,10.765,0,0,0-.948-1.864,24.059,24.059,0,0,0-3.133-4.041,22.309,22.309,0,0,0-9.31-5.8C542.173,425.341,542.121,425.376,541.953,425.485Zm2.4,9.312a1.787,1.787,0,1,1,1.364,1.884A1.655,1.655,0,0,1,544.349,434.8Z" transform="translate(-484.51 -391.519)" fill="#fff"/>
</svg>
