<svg id="Logo_Perhubungan_FLAT" data-name="Logo Perhubungan FLAT" xmlns="http://www.w3.org/2000/svg" width="96.175" height="111.799" viewBox="0 0 96.175 111.799">
  <path id="Path_598" data-name="Path 598" d="M344.1,258.789c.657.306.9.2,1.067-.5a10.176,10.176,0,0,0,.224-2.128,44.57,44.57,0,0,0-1.283-11.313,47.549,47.549,0,0,0-7.364-16.812,54.353,54.353,0,0,0-8.356-8.967,43.181,43.181,0,0,0-16-9.178,52,52,0,0,0-11.878-2.126,4.946,4.946,0,0,1-1.664-.186h-.215c-.226.224-.5.065-.747.092-.249,0-.5,0-.747,0l-2.7,0h0c-.178,0-.358,0-.536-.008-.214-.019-.452.117-.638-.092h-.322a.272.272,0,0,1-.2.056,31.75,31.75,0,0,0-6.776.954,44.872,44.872,0,0,0-10.74,4.1,47.906,47.906,0,0,0-10.237,7.278,50.423,50.423,0,0,0-4.459,4.629,52.545,52.545,0,0,0-6.213,9.168,42.647,42.647,0,0,0-3.352,8.4,46.062,46.062,0,0,0-1.523,7.395c-.086.778-.048,1.561-.169,2.335v.19a47.037,47.037,0,0,0,.23,7.465v0a54.716,54.716,0,0,0,.776,5.69,45.454,45.454,0,0,0,12.271,23.6,44.689,44.689,0,0,0,14.72,10.53,57.044,57.044,0,0,1,6.274,2.871A22.858,22.858,0,0,1,290,307.232a31.582,31.582,0,0,1,6.077,11.635c.105.364.232.548.644.5a5.51,5.51,0,0,1,1.178,0c.477.052.6-.115.6-.59-.017-4.809-.011-9.62-.011-14.431,0-.7.011-1.394-.006-2.091-.006-.293.073-.421.389-.408.536.023,1.073,0,1.609.019.69.029.917.26.946.96.019.5.029,1,0,1.5-.021.368.08.494.471.477a17.092,17.092,0,0,0,2.44-.306,30.6,30.6,0,0,1,5.012-.787c.341-.006.318-.193.3-.417a6.749,6.749,0,0,0-.6-2.589c-.147-.291-.082-.377.232-.452a25.273,25.273,0,0,0,4.87-1.618c.216-.1.343-.109.469.128a5.727,5.727,0,0,1,.875,2.166c.046.509.232.532.659.337,2.243-1.021,4.4-2.214,6.581-3.353.314-.165.27-.356.192-.611a7.977,7.977,0,0,0-1.157-2.222c-.151-.215-.216-.324.121-.435a6.435,6.435,0,0,0,2.026-1.277,8.5,8.5,0,0,1,2.055-1.438c.167-.069.337-.2.552-.059.513.335,1.057.649,1.2,1.3.107.506.331.463.7.266a9.859,9.859,0,0,0,2.379-1.982,30.964,30.964,0,0,1,3.2-3.239c.222-.17.123-.282-.01-.425-.421-.464-.8-.971-1.262-1.387-.437-.391-.385-.665-.04-1.088a18.032,18.032,0,0,0,2.342-3.191c.421-.845.488-.87,1.35-.408a3.461,3.461,0,0,1,.492.324,2.39,2.39,0,0,0,1.094.4.391.391,0,0,0,.483-.216,48.907,48.907,0,0,0,2.94-6.065c.375-1.03.358-1.04-.638-1.434-.414-.165-1.061-.216-1.188-.5-.153-.35.31-.818.469-1.251.473-1.291.961-2.574,1.434-3.865.119-.326.274-.435.636-.312a5.607,5.607,0,0,0,1.795.264c.281,0,.375-.088.387-.36.021-.481.057-.963.111-1.442.2-1.848.757-3.637.94-5.489.092-.912.115-.91-.78-.91-1.58,0-1.655-.1-1.291-1.666C343.4,258.653,343.6,258.555,344.1,258.789Zm-9.049-28.067c.218.065.3.561.458.858,1.057,1.994,2.291,3.888,3.181,5.973a46.581,46.581,0,0,1,3.309,11.6,60.2,60.2,0,0,1,.5,6.56c-.232.006-.464.017-.7.017l-21.064-.012c.04-1.339.169-2.672.215-4.012a52.142,52.142,0,0,0-1.059-11.6c-.17-.891-.283-1.791-.467-2.677-.077-.37.055-.473.37-.567a61.931,61.931,0,0,0,7.155-2.57c2.392-1.048,4.679-2.327,7.121-3.263C334.406,230.909,334.784,230.641,335.054,230.721Zm-14.921-14.069a41.9,41.9,0,0,1,5.979,4.219,42.82,42.82,0,0,1,6.111,6.075c.366.46.676.963,1.042,1.421.285.358.241.578-.136.845a19.986,19.986,0,0,1-2.972,1.676,65.792,65.792,0,0,1-10.668,4c-.4.111-.63.075-.814-.354-.73-1.7-1.549-3.359-2.241-5.073a36.429,36.429,0,0,0-4.535-8.013,20.28,20.28,0,0,1-1.714-2.785,12.063,12.063,0,0,0,5.765-1.957A3.584,3.584,0,0,1,320.132,216.652ZM298.406,259.06c0-.308.1-.393.4-.391,1.978.012,3.959.006,5.987.1-2.1,1.272-4.192,2.545-6.378,3.871C298.414,261.38,298.423,260.219,298.406,259.06Zm.121-3.3c-.358-.042-.207-.322-.207-.5q-.009-6.516,0-13.031c0-.536.036-1.074-.008-1.609-.036-.45.144-.531.544-.525a43.763,43.763,0,0,0,5.133-.251c2.266-.232,4.516-.588,6.757-1,2.155-.4,4.313-.778,6.464-1.193.372-.073.331.157.364.343.272,1.636.55,3.269.795,4.909a49.977,49.977,0,0,1,.59,6.548c.032,1.825-.079,3.643-.161,5.462-.017.37-.251.483-.54.553-.381.092-.766.172-1.151.257-2.57,0-5.242,0-7.81,0Q303.913,255.741,298.527,255.764Zm-.213-26.412c0-2.769.01-5.541-.012-8.31,0-.408.109-.492.5-.494a44.462,44.462,0,0,0,6.427-.686c.86-.132,1.724-.257,2.587-.368.193-.025.389-.079.55.176,1.733,2.737,3.668,5.345,5.236,8.189a26.958,26.958,0,0,1,2.888,6.845c.207.881.218.893-.626,1.185a29.825,29.825,0,0,1-5.453,1.2c-3.108.458-6.238.718-9.371.927-.766.052-1.536.071-2.3.144-.379.036-.433-.109-.431-.44C298.32,234.929,298.314,232.14,298.314,229.352ZM285.1,212.276a34.756,34.756,0,0,1,12.47-1.844,52.642,52.642,0,0,1,15.161,2.618,9.886,9.886,0,0,1,3.108,1.553,25.174,25.174,0,0,1-5.949,2.256,48.477,48.477,0,0,1-12.736,1.76,50.873,50.873,0,0,1-8.657-1.013,35.959,35.959,0,0,1-6.992-1.869,8.258,8.258,0,0,1-2.624-1.569A42.5,42.5,0,0,0,285.1,212.276Zm11.179,25.554c0,.272-.1.322-.347.312-3.16-.121-6.32-.234-9.465-.592a35.33,35.33,0,0,1-6.958-1.32c-1.708-.553-1.735-.571-1.126-2.256a45.547,45.547,0,0,1,6.939-12.8,6.346,6.346,0,0,0,.848-1.354.5.5,0,0,1,.605-.341c1.344.159,2.691.3,4.035.454,1.735.2,3.468.416,5.2.624.092.011.224-.048.251.113q0,4.878-.006,9.758C296.259,232.9,296.259,235.364,296.275,237.831Zm-8.839,1.7a65.461,65.461,0,0,0,8.055.588c.552,0,.684.178.686.724q.023,7.159.119,14.318c.006.477-.111.582-.582.578-3.217-.023-6.435-.011-9.653-.011l-9.653-.034c-.406,0-.506-.1-.548-.515a52.971,52.971,0,0,1-.184-6.638,51.462,51.462,0,0,1,.8-7.059c.186-1.126.408-2.246.557-3.376.054-.408.2-.389.513-.322C280.825,238.47,284.115,239.1,287.436,239.527ZM261.2,228.622a19.346,19.346,0,0,1,3.244-4.033,58.419,58.419,0,0,1,9.641-7.709,6.6,6.6,0,0,1,1.973-.912,3.551,3.551,0,0,1,2.658.481,18.47,18.47,0,0,0,3.164,1.532,12.509,12.509,0,0,0,2.6.577,30.927,30.927,0,0,1-2.317,3.541,42.679,42.679,0,0,0-5.1,9.94c-.3.76-.665,1.5-.9,2.281-.188.626-.565.678-1.09.6a16.424,16.424,0,0,1-3.242-.866,91.274,91.274,0,0,1-10.438-4.685C260.974,229.151,261,228.971,261.2,228.622Zm-9.067,26.788a48.239,48.239,0,0,1,5.59-21.715c.448-.831.983-1.609,1.5-2.4a.651.651,0,0,1,.979-.295c1.521.688,3.013,1.433,4.491,2.2a58.948,58.948,0,0,0,8.448,3.227c.536.182,1.057.416,1.6.582.371.115.446.331.393.678-.274,1.758-.53,3.52-.81,5.278a48.411,48.411,0,0,0-.513,11.694c.086,1.025.1,1.023-.917,1.03-.088,0-.174.006-.262.013l-.8-.006q-3.669.009-7.337.023-4.6.017-9.208.038c-.929-.006-1.858-.019-2.787-.012C252.242,255.757,252.127,255.72,252.137,255.41Zm44.105,57.5a12.461,12.461,0,0,1-1.253-2.214c-.555-1.193-1.05-2.413-1.7-3.56a18.029,18.029,0,0,0-6.142-6.075,75.487,75.487,0,0,0-9.252-4.847,45.448,45.448,0,0,1-8.952-5.28,46.149,46.149,0,0,1-15.54-24.76c-.054-.239-.094-.483-.155-.806,1.222.485,2.229,1.209,3.373,1.659a17.409,17.409,0,0,1,2.22,1.032,2.145,2.145,0,0,1,1.063,1.406c1.752,6.958,5.606,12.652,10.706,17.551a38.617,38.617,0,0,0,17.928,9.779,36.39,36.39,0,0,0,7.23,1.013c.255.01.419,0,.421.354.017,4.88.054,9.76.082,14.64A1.084,1.084,0,0,1,296.242,312.908Zm.033-30.069c-.3,3.089.1,6.178-.006,9.268-.006.2-.019.391-.029.588.009.642,0,1.285.034,1.927.017.333-.086.425-.419.416a30.657,30.657,0,0,1-4.411-.473,36.383,36.383,0,0,1-15.772-6.743A37.2,37.2,0,0,1,262.647,269.8c-.28-.806-.247-.827.557-.741.584.063,1.166.153,1.749.232,1.572.006,3.143.14,4.734.025-.734-.226-1.469-.442-2.2-.68a37.566,37.566,0,0,1-9.7-4.47,24.764,24.764,0,0,1-4.754-4.384,5.675,5.675,0,0,1-.45-.663,2.017,2.017,0,0,1-.123-.266c.077-.126.174-.088.253-.088q8.716-.006,17.432-.006c.088,0,.178.011.266.019q4.418-.014,8.837-.025c5.464-.01,10.926-.008,16.39-.029.435,0,.617.086.557.544a8.437,8.437,0,0,0-.019.96c.126,1.14.071,2.283.084,3.424s.023,2.289.012,3.432c0,.3.09.395.385.417a25.981,25.981,0,0,0,2.787.006,35.094,35.094,0,0,1,6.311.157,9.815,9.815,0,0,1,.992.2c1.41.364,1.762.921,1.517,2.373-.031.176-.067.349-.1.525-.144.891-.144.908.781.86a13.711,13.711,0,0,1,3.629.117,2.83,2.83,0,0,1,1.712.992c-1.011.067-1.986.121-2.959.2a30.011,30.011,0,0,0-7.745,1.392A13.607,13.607,0,0,0,299,276.991,8.559,8.559,0,0,0,296.275,282.84Zm37.345-13.182a40.011,40.011,0,0,1-7.988,12.679,37.806,37.806,0,0,1-20.117,11.319,54.518,54.518,0,0,1-6.814.946c-.266.021-.421.013-.41-.343.105-3.254-.167-6.5-.08-9.758a13.771,13.771,0,0,1,.462-3.329,6.494,6.494,0,0,1,3.39-3.986,18.084,18.084,0,0,1,12.347-2.042c.931.163,1.86.331,2.788.5.149.027.352.147.293-.165-.437-2.35-1.528-4.443-4.034-5.353a9.581,9.581,0,0,0-2.93-.5.611.611,0,0,1-.655-.462c-.147-.4-.373-.766-.534-1.159a3.941,3.941,0,0,0-3.924-2.494c-2.111-.075-4.219.006-6.328.025-.523,0-.517-.169-.341-.542a5.839,5.839,0,0,1,2.18-2.3,24.746,24.746,0,0,1,8.285-3.4,21.8,21.8,0,0,1,5.251-.578c3.183.025,6.364.008,9.547.008,3.827-.079,7.651-.056,11.478,0,.427.006.523.124.511.536A29.375,29.375,0,0,1,333.619,269.657Z" transform="translate(-249.227 -207.58)" fill="#fff"/>
  <path id="Path_599" data-name="Path 599" d="M485.4,207.636h2.62c0-.019,0-.036,0-.056h-2.681a.547.547,0,0,1,0,.056Z" transform="translate(-440.112 -207.58)" fill="#fff"/>
  <path id="Path_600" data-name="Path 600" d="M499.391,207.636h.668c.017,0,.035,0,.054,0,0-.017,0-.036,0-.054h-.751C499.387,207.6,499.394,207.616,499.391,207.636Z" transform="translate(-451.454 -207.58)" fill="#fff"/>
  <path id="Path_601" data-name="Path 601" d="M499.4,207.876s0,0,0-.006h-.029c0,.013,0,.027,0,.042C499.385,207.912,499.395,207.9,499.4,207.876Z" transform="translate(-451.463 -207.814)" fill="#fff"/>
  <path id="Path_602" data-name="Path 602" d="M503.311,207.634a1.765,1.765,0,0,0,.72-.054h-.751C503.309,207.6,503.315,207.615,503.311,207.634Z" transform="translate(-454.624 -207.58)" fill="#fff"/>
  <path id="Path_603" data-name="Path 603" d="M503.323,207.868s0,0,0-.008h-.029a.243.243,0,0,0,0,.038C503.3,207.9,503.313,207.889,503.323,207.868Z" transform="translate(-454.632 -207.806)" fill="#fff"/>
  <path id="Path_604" data-name="Path 604" d="M479.83,207.634a.5.5,0,0,0,0-.054h-.643A1.475,1.475,0,0,0,479.83,207.634Z" transform="translate(-435.147 -207.58)" fill="#fff"/>
  <path id="Path_605" data-name="Path 605" d="M482.579,207.636h.483c0-.008-.015-.017-.01-.025s.023-.031.034-.031h-.536C482.581,207.6,482.585,207.618,482.579,207.636Z" transform="translate(-437.864 -207.58)" fill="#fff"/>
  <path id="Path_606" data-name="Path 606" d="M485.22,207.87c0,.013,0,.029.017.044a.339.339,0,0,0,0-.044Z" transform="translate(-440.023 -207.814)" fill="#fff"/>
  <path id="Path_607" data-name="Path 607" d="M482.558,207.874s-.006-.006,0-.008a.185.185,0,0,0-.033,0,.251.251,0,0,1,0,.038C482.533,207.9,482.545,207.893,482.558,207.874Z" transform="translate(-437.84 -207.811)" fill="#fff"/>
  <path id="Path_608" data-name="Path 608" d="M341.711,545.13a34.2,34.2,0,0,1-10.532-15.35c-.107.241.025.454.094.67a24.942,24.942,0,0,0,2.252,4.972A35.259,35.259,0,0,0,350.6,550.752a36.212,36.212,0,0,0,10.654,2.522,2.231,2.231,0,0,0,1.21-.086h0a34.358,34.358,0,0,1-6.3-.833A33.252,33.252,0,0,1,341.711,545.13Z" transform="translate(-315.451 -468.072)" fill="#fff"/>
  <path id="Path_609" data-name="Path 609" d="M540.021,530.354a1.629,1.629,0,0,0,1.2-1.228c0-.387-.328-.574-.981-.567-.791.01-.858.077-.848.847C539.394,530.007,539.641,530.377,540.021,530.354Z" transform="translate(-483.815 -467.085)" fill="#fff"/>
</svg>
