<svg xmlns="http://www.w3.org/2000/svg" width="120.521" height="120.521" viewBox="0 0 120.521 120.521">
  <g id="Mask_Group_2954" data-name="Mask Group 2954" transform="translate(-521.871 -45)">
    <g id="master_cable" data-name="master cable" transform="translate(521.871 45)">
      <rect id="Artboard1" width="120.521" height="120.521" fill="none"/>
      <g id="Artboard11" transform="translate(16.062 23.982)">
        <g id="Group_2953" data-name="Group 2953" transform="translate(8.011 21.381)">
          <path id="Path_674" data-name="Path 674" d="M184.8,248.434l35.047-7.792a1.378,1.378,0,0,1,1.678,1.346h0a1.24,1.24,0,0,1-.811,1.163l-17.883,6.6L187.256,251.7a4.639,4.639,0,0,1,.081.86v4.909h6.372v-1.6h1.758V253.5l5.5-.574v2.942h1.866v1.6h3.5a1.919,1.919,0,0,1,1.919,1.919v1.465a1.923,1.923,0,0,1-.042.4h16.777c-9.147-1.819-16.978-8.835-16.978-8.835-.894-.541-1.164,0-1.164,0l-.031,1.029-1.84.047.009-2.19c.782-1.881,3.6-.929,3.6-.929,3.9,4.041,11.266,6.617,11.266,6.617a70.886,70.886,0,0,0,14.419,3.728v.532h2.216a1.919,1.919,0,0,1,1.919,1.919v3.726a1.919,1.919,0,0,1-1.919,1.919H167.949a1.919,1.919,0,0,1-1.919-1.919v-3.726a1.919,1.919,0,0,1,1.919-1.919h1.7a1.923,1.923,0,0,1-.042-.4v-1.465a1.919,1.919,0,0,1,1.919-1.919h6.547v-4.616l-5.221.656a1.243,1.243,0,0,1-1.4-1.234h0a1.094,1.094,0,0,1,.857-1.068l6.745-1.5a4.686,4.686,0,0,1,.375-.424,4.634,4.634,0,0,1,3.276-1.357h0A4.632,4.632,0,0,1,184.8,248.434Zm-2.1,4.165a.944.944,0,1,1-.944.944A.944.944,0,0,1,182.7,252.6Zm14.033-10.724V245.1l2.988-.643V241.4l3.16-.5a.784.784,0,0,0,.661-.774h0a1.094,1.094,0,0,0-1.266-1.08l-8.46,1.347a.784.784,0,0,0-.661.774h0a1.094,1.094,0,0,0,1.265,1.08Zm40.45-.307a1.23,1.23,0,0,0-1.231-1.231H224.45a1.23,1.23,0,0,0-1.231,1.231h0a1.23,1.23,0,0,0,1.231,1.231h11.506a1.23,1.23,0,0,0,1.231-1.231Z" transform="translate(-166.029 -239.029)" fill="none" stroke="#000" stroke-width="1.3" fill-rule="evenodd"/>
        </g>
      </g>
    </g>
  </g>
</svg>
