<svg xmlns="http://www.w3.org/2000/svg" width="32.43" height="25.223" viewBox="0 0 32.43 25.223">
  <path id="Icon_awesome-address-card" data-name="Icon awesome-address-card" d="M29.728,2.25H2.7A2.7,2.7,0,0,0,0,4.953V24.771a2.7,2.7,0,0,0,2.7,2.7H29.728a2.7,2.7,0,0,0,2.7-2.7V4.953A2.7,2.7,0,0,0,29.728,2.25ZM9.909,7.655a3.6,3.6,0,1,1-3.6,3.6A3.607,3.607,0,0,1,9.909,7.655Zm6.306,13.332a1.181,1.181,0,0,1-1.261,1.081H4.865A1.181,1.181,0,0,1,3.6,20.987V19.906a3.546,3.546,0,0,1,3.784-3.243h.282a5.8,5.8,0,0,0,4.482,0h.282a3.546,3.546,0,0,1,3.784,3.243Zm12.612-2.973a.452.452,0,0,1-.45.45H20.269a.452.452,0,0,1-.45-.45v-.9a.452.452,0,0,1,.45-.45h8.108a.452.452,0,0,1,.45.45Zm0-3.6a.452.452,0,0,1-.45.45H20.269a.452.452,0,0,1-.45-.45v-.9a.452.452,0,0,1,.45-.45h8.108a.452.452,0,0,1,.45.45Zm0-3.6a.452.452,0,0,1-.45.45H20.269a.452.452,0,0,1-.45-.45v-.9a.452.452,0,0,1,.45-.45h8.108a.452.452,0,0,1,.45.45Z" transform="translate(0 -2.25)" fill="#333"/>
</svg>
