<svg xmlns="http://www.w3.org/2000/svg" width="51.748" height="48.949" viewBox="0 0 51.748 48.949">
  <g id="tide" transform="translate(0 -13.835)">
    <path id="Path_642" data-name="Path 642" d="M7.672,255.736a2.521,2.521,0,0,1,3.17,0l3.241,2.6a5.538,5.538,0,0,0,6.965,0l3.241-2.6a2.521,2.521,0,0,1,3.17,0l3.241,2.6a5.538,5.538,0,0,0,6.965,0l3.241-2.6a2.521,2.521,0,0,1,3.17,0l5.775,4.626,1.9-2.368-5.775-4.626a5.539,5.539,0,0,0-6.965,0l-3.241,2.6a2.521,2.521,0,0,1-3.17,0l-3.241-2.6a5.539,5.539,0,0,0-6.965,0l-3.241,2.6a2.521,2.521,0,0,1-3.17,0l-3.241-2.6a5.539,5.539,0,0,0-6.965,0L0,257.993l1.9,2.368Z" transform="translate(0 -214.194)" fill="#fff"/>
    <path id="Path_643" data-name="Path 643" d="M39.009,335.5l-3.241,2.6a2.521,2.521,0,0,1-3.17,0l-3.241-2.6a5.538,5.538,0,0,0-6.965,0l-3.241,2.6a2.52,2.52,0,0,1-3.17,0l-3.241-2.6a5.538,5.538,0,0,0-6.965,0L0,340.124l1.9,2.368,5.775-4.626a2.52,2.52,0,0,1,3.17,0l3.241,2.6a5.539,5.539,0,0,0,6.965,0l3.241-2.6a2.521,2.521,0,0,1,3.17,0l3.241,2.6a5.539,5.539,0,0,0,6.965,0l3.241-2.6a2.52,2.52,0,0,1,3.17,0l5.775,4.626,1.9-2.368L45.973,335.5A5.538,5.538,0,0,0,39.009,335.5Z" transform="translate(0 -288.017)" fill="#fff"/>
    <path id="Path_644" data-name="Path 644" d="M39.009,417.632l-3.241,2.6a2.52,2.52,0,0,1-3.17,0l-3.241-2.6a5.538,5.538,0,0,0-6.965,0l-3.241,2.6a2.52,2.52,0,0,1-3.17,0l-3.241-2.6a5.538,5.538,0,0,0-6.965,0L0,422.258l1.9,2.368L7.672,420a2.52,2.52,0,0,1,3.17,0l3.241,2.6a5.538,5.538,0,0,0,6.965,0l3.241-2.6a2.52,2.52,0,0,1,3.17,0l3.241,2.6a5.538,5.538,0,0,0,6.965,0l3.241-2.6a2.52,2.52,0,0,1,3.17,0l5.775,4.626,1.9-2.368-5.775-4.626A5.538,5.538,0,0,0,39.009,417.632Z" transform="translate(0 -361.843)" fill="#fff"/>
    <path id="Path_645" data-name="Path 645" d="M178.872,19.611v11.14h3.035V19.677l4.762,4.761,2.146-2.146-8.458-8.458L171.9,22.293l2.146,2.146Z" transform="translate(-154.509 0)" fill="#fff"/>
  </g>
</svg>
