<svg xmlns="http://www.w3.org/2000/svg" width="29.033" height="29.033" viewBox="0 0 29.033 29.033">
  <path id="Icon_awesome-phone-alt" data-name="Icon awesome-phone-alt" d="M28.205,20.517l-6.351-2.722a1.361,1.361,0,0,0-1.588.391l-2.813,3.436A21.019,21.019,0,0,1,7.406,11.574l3.436-2.813a1.358,1.358,0,0,0,.391-1.588L8.512.823A1.37,1.37,0,0,0,6.952.035L1.055,1.4A1.361,1.361,0,0,0,0,2.722,26.309,26.309,0,0,0,26.312,29.034a1.361,1.361,0,0,0,1.327-1.055L29,22.082a1.377,1.377,0,0,0-.794-1.565Z" transform="translate(0 0)" fill="#333"/>
</svg>
