<svg xmlns="http://www.w3.org/2000/svg" width="24.682" height="42.5" viewBox="0 0 24.682 42.5">
  <g id="Group_2490" data-name="Group 2490" transform="translate(-23.262 -1.652)">
    <path id="Path_81" data-name="Path 81" d="M41.631,62.388V55.393h.9a1.692,1.692,0,1,0,0-3.384H28.674a1.692,1.692,0,1,0,0,3.384h.9v6.995h.889V55.393h2.914v6.995h.889V55.393H36.94v6.995h.889V55.393h2.913v6.995h.889ZM47.594,37.3A1.692,1.692,0,0,0,45.9,35.606H25.3a1.692,1.692,0,0,0,0,3.384H45.9A1.692,1.692,0,0,0,47.594,37.3Z" transform="translate(0 -18.586)" fill="none" stroke="#000" stroke-width="0.7"/>
    <rect id="Rectangle_41" data-name="Rectangle 41" width="3.423" height="2.622" transform="translate(36.047 27.357)" fill="none" stroke="#000" stroke-width="0.7"/>
    <rect id="Rectangle_42" data-name="Rectangle 42" width="3.423" height="2.618" transform="translate(31.735 23.85)" fill="none" stroke="#000" stroke-width="0.7"/>
    <rect id="Rectangle_43" data-name="Rectangle 43" width="3.423" height="2.618" transform="translate(36.047 23.85)" fill="none" stroke="#000" stroke-width="0.7"/>
    <rect id="Rectangle_44" data-name="Rectangle 44" width="3.423" height="2.622" transform="translate(31.735 27.357)" fill="none" stroke="#000" stroke-width="0.7"/>
    <path id="Path_82" data-name="Path 82" d="M36.115,58.86H33.1l.748,2.622h2.27Z" transform="translate(-5.269 -31.503)" fill="none" stroke="#000" stroke-width="0.7"/>
    <path id="Path_83" data-name="Path 83" d="M66.031,45.218H61.283v1.667h4.272Z" transform="translate(-20.925 -23.925)" fill="none" stroke="#000" stroke-width="0.7"/>
    <rect id="Rectangle_45" data-name="Rectangle 45" width="3.423" height="1.667" transform="translate(31.734 21.293)" fill="none" stroke="#000" stroke-width="0.7"/>
    <path id="Path_84" data-name="Path 84" d="M34.866,53.589V50.971H30.848l.746,2.618Z" transform="translate(-4.019 -27.121)" fill="none" stroke="#000" stroke-width="0.7"/>
    <path id="Path_85" data-name="Path 85" d="M61.283,68.425h1.543l.476-1.667H61.283Z" transform="translate(-20.925 -35.89)" fill="none" stroke="#000" stroke-width="0.7"/>
    <path id="Path_86" data-name="Path 86" d="M29.213,45.218l.476,1.667h4.267V45.218Z" transform="translate(-3.111 -23.925)" fill="none" stroke="#000" stroke-width="0.7"/>
    <path id="Path_87" data-name="Path 87" d="M61.288,50.971v2.618H64.56l.746-2.618Z" transform="translate(-20.928 -27.121)" fill="none" stroke="#000" stroke-width="0.7"/>
    <path id="Path_88" data-name="Path 88" d="M37.367,68.425V66.758H35.353l.476,1.667Z" transform="translate(-6.522 -35.89)" fill="none" stroke="#000" stroke-width="0.7"/>
    <path id="Path_89" data-name="Path 89" d="M64.307,58.86H61.288v2.622h2.271Z" transform="translate(-20.928 -31.503)" fill="none" stroke="#000" stroke-width="0.7"/>
    <rect id="Rectangle_46" data-name="Rectangle 46" width="3.423" height="1.667" transform="translate(31.734 30.868)" fill="none" stroke="#000" stroke-width="0.7"/>
    <rect id="Rectangle_47" data-name="Rectangle 47" width="3.423" height="1.667" transform="translate(36.046 30.868)" fill="none" stroke="#000" stroke-width="0.7"/>
    <rect id="Rectangle_48" data-name="Rectangle 48" width="3.423" height="1.667" transform="translate(36.046 21.293)" fill="none" stroke="#000" stroke-width="0.7"/>
    <path id="Path_90" data-name="Path 90" d="M31.493,14.563v1.569H48.34V14.563a1.305,1.305,0,0,0-1.3-1.307H39.97V8.771a1.765,1.765,0,1,0-.889,0v4.485H32.8A1.305,1.305,0,0,0,31.493,14.563Zm1.525-5.026.832-.314a6.09,6.09,0,0,1,1.383-6.447L34.6,2.146A6.98,6.98,0,0,0,33.018,9.537Z" transform="translate(-4.378)" fill="none" stroke="#000" stroke-width="0.7"/>
    <path id="Path_91" data-name="Path 91" d="M36.066,10.6a6.932,6.932,0,0,0,1.079,1.393l.629-.629a6.044,6.044,0,0,1-.941-1.215Zm12.046-.078-.772-.441a6.073,6.073,0,0,1-.98,1.283l.629.629A6.953,6.953,0,0,0,48.112,10.52ZM46.36,2.775A6.113,6.113,0,0,1,47.795,9.08l.84.293a7.007,7.007,0,0,0-1.646-7.227ZM37.6,4.342l.759.464A4.311,4.311,0,0,1,39,4l-.629-.629A5.237,5.237,0,0,0,37.6,4.342ZM39,10.137a4.341,4.341,0,0,1-.963-4.674l-.827-.328a5.229,5.229,0,0,0,1.161,5.63Z" transform="translate(-6.918 0)" fill="none" stroke="#000" stroke-width="0.7"/>
    <path id="Path_92" data-name="Path 92" d="M49.332,7.285a4.332,4.332,0,0,1-1.067,4.382l.629.629a5.219,5.219,0,0,0,1.286-5.278ZM48.265,5.53a4.33,4.33,0,0,1,.678.877l.768-.449A5.247,5.247,0,0,0,48.894,4.9Zm-5.541.6a3.5,3.5,0,0,0,0,4.945l.629-.629a2.611,2.611,0,0,1,0-3.688Z" transform="translate(-10.048 -1.53)" fill="none" stroke="#000" stroke-width="0.7"/>
    <path id="Path_93" data-name="Path 93" d="M53.712,8.285a2.611,2.611,0,0,1,0,3.688l.629.629a3.5,3.5,0,0,0,0-4.945Z" transform="translate(-16.72 -3.061)" fill="none" stroke="#000" stroke-width="0.7"/>
  </g>
</svg>
