<svg xmlns="http://www.w3.org/2000/svg" width="32.985" height="26.413" viewBox="0 0 32.985 26.413">
  <defs>
    <style>
      .cls-1 {
        fill: #fff;
      }
    </style>
  </defs>
  <path id="sea" class="cls-1" d="M28.884,13.588a12.644,12.644,0,0,0-3.8-.387,21.394,21.394,0,0,0-4.042.529q-1.949.452-4.187,1.008T12.6,15.784a26.328,26.328,0,0,1-4.268.659A17.943,17.943,0,0,1,4.147,16.3a9.531,9.531,0,0,1-2.931-.917Q.025,14.751.025,14.027t1.224-1.085a6.683,6.683,0,0,1,2.9-.1,8.876,8.876,0,0,0,3.318.413,21.185,21.185,0,0,0,3.9-.529q1.965-.452,4.284-1.008t4.477-1.059A28.953,28.953,0,0,1,24.6,9.984a18.738,18.738,0,0,1,4.284.142,9.531,9.531,0,0,1,2.931.917q1.191.632,1.191,1.331,0,.775-1.273,1.188a5.138,5.138,0,0,1-2.851.026Zm0-9.918a12.644,12.644,0,0,0-3.8-.387,21.394,21.394,0,0,0-4.042.529q-1.949.452-4.187,1.008T12.6,5.865a26.327,26.327,0,0,1-4.268.659,17.943,17.943,0,0,1-4.187-.142,9.531,9.531,0,0,1-2.931-.917Q.025,4.833.025,4.109T1.249,3.024a6.683,6.683,0,0,1,2.9-.1,8.876,8.876,0,0,0,3.318.413,21.185,21.185,0,0,0,3.9-.529q1.965-.452,4.284-1.008T20.124.738A28.953,28.953,0,0,1,24.6.066a18.738,18.738,0,0,1,4.284.142,9.531,9.531,0,0,1,2.931.917q1.191.632,1.191,1.331,0,.775-1.273,1.188a5.138,5.138,0,0,1-2.851.026ZM4.146,22.757a8.876,8.876,0,0,0,3.318.413,21.185,21.185,0,0,0,3.9-.529q1.965-.452,4.284-1.008t4.477-1.059A28.953,28.953,0,0,1,24.6,19.9a18.738,18.738,0,0,1,4.284.142,9.531,9.531,0,0,1,2.931.917q1.191.632,1.191,1.331,0,.775-1.273,1.188a5.138,5.138,0,0,1-2.851.026,12.644,12.644,0,0,0-3.8-.387,21.394,21.394,0,0,0-4.042.529q-1.949.452-4.187,1.008T12.6,25.7a26.327,26.327,0,0,1-4.268.659,17.943,17.943,0,0,1-4.187-.142A9.531,9.531,0,0,1,1.214,25.3Q.023,24.669.023,23.945t1.224-1.085a6.683,6.683,0,0,1,2.9-.1Z" transform="translate(-0.023 -0.007)"/>
</svg>
