<svg xmlns="http://www.w3.org/2000/svg" width="26.307" height="26.307" viewBox="0 0 26.307 26.307">
  <g id="ship-on-port" transform="translate(-34 -340.832)">
    <g id="cargo-ship" transform="translate(34 340.832)">
      <path id="Path_6" data-name="Path 6" d="M25.537,462a3.2,3.2,0,0,0-1.975.642,1.83,1.83,0,0,1-2.246,0,3.357,3.357,0,0,0-3.95,0,1.824,1.824,0,0,1-2.242,0,3.353,3.353,0,0,0-3.947,0,1.824,1.824,0,0,1-2.242,0A3.191,3.191,0,0,0,6.96,462a3.191,3.191,0,0,0-1.974.643,1.708,1.708,0,0,1-1.121.385,1.708,1.708,0,0,1-1.121-.385A3.191,3.191,0,0,0,.771,462a.771.771,0,0,0,0,1.541,1.708,1.708,0,0,1,1.121.385,3.191,3.191,0,0,0,1.974.642,3.191,3.191,0,0,0,1.974-.642,1.708,1.708,0,0,1,1.121-.385,1.708,1.708,0,0,1,1.121.385,3.191,3.191,0,0,0,1.974.642,3.192,3.192,0,0,0,1.974-.642,1.824,1.824,0,0,1,2.242,0,3.353,3.353,0,0,0,3.948,0,1.828,1.828,0,0,1,2.245,0,3.359,3.359,0,0,0,3.95,0,1.713,1.713,0,0,1,1.123-.385.771.771,0,0,0,0-1.541Z" transform="translate(0 -438.262)"/>
      <circle id="Ellipse_1" data-name="Ellipse 1" cx="0.771" cy="0.771" r="0.771" transform="translate(12.383 6.782)"/>
      <circle id="Ellipse_2" data-name="Ellipse 2" cx="0.771" cy="0.771" r="0.771" transform="translate(15.466 6.782)"/>
      <circle id="Ellipse_3" data-name="Ellipse 3" cx="0.771" cy="0.771" r="0.771" transform="translate(9.3 6.782)"/>
      <path id="Path_7" data-name="Path 7" d="M.771,21.683a1.708,1.708,0,0,1,1.121.385,3.191,3.191,0,0,0,1.974.643,3.191,3.191,0,0,0,1.974-.643,1.708,1.708,0,0,1,1.121-.385,1.708,1.708,0,0,1,1.121.385,3.191,3.191,0,0,0,1.974.643,3.192,3.192,0,0,0,1.974-.642,1.824,1.824,0,0,1,2.242,0,3.353,3.353,0,0,0,3.948,0,1.828,1.828,0,0,1,2.245,0,3.358,3.358,0,0,0,3.95,0,1.713,1.713,0,0,1,1.123-.385.771.771,0,1,0,0-1.541,3.2,3.2,0,0,0-1.975.642,1.83,1.83,0,0,1-2.246,0A3.758,3.758,0,0,0,20.4,20.3l2.211-5.795a.771.771,0,0,0-.427-.987l-2.606-1.073V4.47a.771.771,0,0,0-.771-.771H16.493V.771A.771.771,0,0,0,15.723,0H10.585a.771.771,0,0,0-.771.771V3.7H7.5a.771.771,0,0,0-.771.771v7.977L4.125,13.52a.771.771,0,0,0-.427.987l2.2,5.8a3.754,3.754,0,0,0-.917.482,1.708,1.708,0,0,1-1.121.385,1.708,1.708,0,0,1-1.121-.385,3.191,3.191,0,0,0-1.974-.643.771.771,0,1,0,0,1.541Zm18.023-1.5a3.27,3.27,0,0,0-1.429.6,1.824,1.824,0,0,1-2.242,0,3.408,3.408,0,0,0-1.2-.56V11.787L20.9,14.659ZM11.355,1.541h3.6V3.7h-3.6Zm-3.083,3.7h9.762v6.571L13.447,9.923a.771.771,0,0,0-.587,0L8.272,11.812Zm4.111,6.546v8.435a3.4,3.4,0,0,0-1.207.562,1.824,1.824,0,0,1-2.242,0,3.269,3.269,0,0,0-1.427-.6l-2.1-5.521Z"/>
    </g>
  </g>
</svg>
