<svg xmlns="http://www.w3.org/2000/svg" width="29.879" height="22.65" viewBox="0 0 29.879 22.65">
  <g id="ship-arrival" transform="translate(-31.906 -507)">
    <g id="ship_1_" data-name="ship (1)" transform="translate(23.905 435)">
      <path id="Path_10" data-name="Path 10" d="M272.482,176a.482.482,0,0,0-.482.482v1.928a.482.482,0,0,0,.964,0v-1.928A.482.482,0,0,0,272.482,176Z" transform="translate(-248.097 -97.735)"/>
      <path id="Path_11" data-name="Path 11" d="M248.482,176a.482.482,0,0,0-.482.482v1.928a.482.482,0,0,0,.964,0v-1.928A.482.482,0,0,0,248.482,176Z" transform="translate(-225.542 -97.735)"/>
      <path id="Path_12" data-name="Path 12" d="M296.482,176a.482.482,0,0,0-.482.482v1.928a.482.482,0,1,0,.964,0v-1.928A.482.482,0,0,0,296.482,176Z" transform="translate(-270.651 -97.735)"/>
      <path id="Path_13" data-name="Path 13" d="M384.482,176a.482.482,0,0,0-.482.482v1.928a.482.482,0,0,0,.964,0v-1.928A.482.482,0,0,0,384.482,176Z" transform="translate(-353.35 -97.735)"/>
      <path id="Path_14" data-name="Path 14" d="M360.482,176a.482.482,0,0,0-.482.482v1.928a.482.482,0,0,0,.964,0v-1.928A.482.482,0,0,0,360.482,176Z" transform="translate(-330.796 -97.735)"/>
      <path id="Path_15" data-name="Path 15" d="M408.482,178.891a.482.482,0,0,0,.482-.482v-1.928a.482.482,0,1,0-.964,0v1.928A.482.482,0,0,0,408.482,178.891Z" transform="translate(-375.904 -97.735)"/>
      <path id="Path_16" data-name="Path 16" d="M336.482,98.891a.482.482,0,0,0,.482-.482V96.482a.482.482,0,1,0-.964,0V98.41A.482.482,0,0,0,336.482,98.891Z" transform="translate(-308.241 -22.554)"/>
      <path id="Path_17" data-name="Path 17" d="M312.482,96a.482.482,0,0,0-.482.482V98.41a.482.482,0,0,0,.964,0V96.482A.482.482,0,0,0,312.482,96Z" transform="translate(-285.687 -22.554)"/>
      <path id="Path_18" data-name="Path 18" d="M360.482,98.891a.482.482,0,0,0,.482-.482V96.482a.482.482,0,1,0-.964,0V98.41A.482.482,0,0,0,360.482,98.891Z" transform="translate(-330.796 -22.554)"/>
      <path id="Path_19" data-name="Path 19" d="M37.4,89.349H34.321l3.507-7.013a.482.482,0,0,0-.431-.7h-2.41V77.3a.482.482,0,0,0-.482-.482H32.1V72.482A.482.482,0,0,0,31.614,72H24.867a.482.482,0,0,0-.482.482v4.337H21.012a.482.482,0,0,0-.482.482v4.337H18.6V77.3a.482.482,0,0,0-.482-.482H16.193V75.373a.482.482,0,0,0-.482-.482H14.265v-2.41a.482.482,0,1,0-.964,0v.666l-.266-.134a.482.482,0,1,0-.431.863l.7.348v.666h-.482a.482.482,0,0,0-.482.482v1.446h-.964a.482.482,0,0,0-.482.482v4.337H8.482a.482.482,0,0,0-.467.6l1.778,7.112H8.482a.482.482,0,0,0,0,.964H37.4a.482.482,0,0,0,0-.964ZM34.023,77.783v3.855H28.24V77.783Zm-8.674-4.819h5.783v3.855H25.349Zm-3.855,4.819h5.783v3.855H21.494ZM13.3,75.855h1.928v.964H13.3Zm-1.446,1.928h5.783v.482H14.265a.482.482,0,0,0-.482.482v1.928a.482.482,0,0,0,.482.482h3.373v.482H11.855Zm5.783,1.446v.964H14.747v-.964Zm15.606,10.12H10.786L9.1,82.6H36.617Z"/>
      <path id="Path_20" data-name="Path 20" d="M52.337,264H48.482a.482.482,0,0,0,0,.964h3.855a.482.482,0,0,0,0-.964Z" transform="translate(-37.59 -180.434)"/>
      <path id="Path_21" data-name="Path 21" d="M136.964,264h-.482a.482.482,0,0,0,0,.964h.482a.482.482,0,0,0,0-.964Z" transform="translate(-120.289 -180.434)"/>
      <path id="Path_22" data-name="Path 22" d="M37.4,384.964a2.245,2.245,0,0,1-1.359-.413,3.4,3.4,0,0,0-3.709,0,2.44,2.44,0,0,1-2.717,0,3.4,3.4,0,0,0-3.709,0,2.439,2.439,0,0,1-2.717,0,3.4,3.4,0,0,0-3.709,0,2.439,2.439,0,0,1-2.716,0,3.4,3.4,0,0,0-3.709,0,2.245,2.245,0,0,1-1.359.413,2.244,2.244,0,0,1-1.358-.413A3.18,3.18,0,0,0,8.482,384a.482.482,0,0,0,0,.964,2.245,2.245,0,0,1,1.358.413,3.18,3.18,0,0,0,1.854.551,3.18,3.18,0,0,0,1.854-.551,2.439,2.439,0,0,1,2.717,0,3.4,3.4,0,0,0,3.709,0,2.439,2.439,0,0,1,2.717,0,3.4,3.4,0,0,0,3.709,0,2.439,2.439,0,0,1,2.717,0,3.4,3.4,0,0,0,3.709,0,2.44,2.44,0,0,1,2.717,0,3.181,3.181,0,0,0,1.855.551.482.482,0,0,0,0-.964Z" transform="translate(0 -293.205)"/>
      <path id="Path_23" data-name="Path 23" d="M37.4,416.964a2.245,2.245,0,0,1-1.359-.413,3.4,3.4,0,0,0-3.709,0,2.44,2.44,0,0,1-2.717,0,3.4,3.4,0,0,0-3.709,0,2.439,2.439,0,0,1-2.717,0,3.4,3.4,0,0,0-3.709,0,2.439,2.439,0,0,1-2.716,0,3.4,3.4,0,0,0-3.709,0,2.246,2.246,0,0,1-1.359.413,2.245,2.245,0,0,1-1.358-.413A3.18,3.18,0,0,0,8.482,416a.482.482,0,0,0,0,.964,2.244,2.244,0,0,1,1.358.413,3.18,3.18,0,0,0,1.854.551,3.18,3.18,0,0,0,1.854-.551,2.439,2.439,0,0,1,2.717,0,3.4,3.4,0,0,0,3.709,0,2.439,2.439,0,0,1,2.717,0,3.4,3.4,0,0,0,3.709,0,2.439,2.439,0,0,1,2.717,0,3.4,3.4,0,0,0,3.709,0,2.44,2.44,0,0,1,2.717,0,3.181,3.181,0,0,0,1.855.551.482.482,0,1,0,0-.964Z" transform="translate(0 -323.278)"/>
    </g>
  </g>
</svg>
