<?xml version="1.0" encoding="utf-8"?>
<!-- Generator: Adobe Illustrator 23.0.3, SVG Export Plug-In . SVG Version: 6.00 Build 0)  -->
<svg version="1.1" id="Icons" xmlns="http://www.w3.org/2000/svg" xmlns:xlink="http://www.w3.org/1999/xlink" x="0px" y="0px"
	 viewBox="0 0 32 32" style="enable-background:new 0 0 32 32;" xml:space="preserve">
<style type="text/css">
	.st0{fill:none;stroke:#000000;stroke-width:2;stroke-linecap:round;stroke-linejoin:round;stroke-miterlimit:10;}
	.st1{fill:none;stroke:#000000;stroke-width:2;stroke-linejoin:round;stroke-miterlimit:10;}
</style>
<path class="st0" d="M29,28.5c-1-0.8-2.7-0.8-3.7,0l0,0c-1,0.8-2.7,0.8-3.7,0l0,0c-1-0.8-2.7-0.8-3.7,0l0,0c-1,0.8-2.7,0.8-3.7,0
	l0,0c-1-0.8-2.7-0.8-3.7,0l0,0c-1,0.8-2.7,0.8-3.7,0l0,0c-1-0.8-2.7-0.8-3.7,0"/>
<polyline class="st0" points="16,15 5,19 9,29 "/>
<polyline class="st0" points="16,15 27,19 23,29 "/>
<path class="st0" d="M9,17.5V11c0-1.1,0.9-2,2-2h10c1.1,0,2,0.9,2,2v6.5"/>
<line class="st0" x1="12" y1="12" x2="20" y2="12"/>
<line class="st0" x1="16" y1="19" x2="6.4" y2="22.5"/>
<line class="st0" x1="16" y1="19" x2="25.6" y2="22.5"/>
<path class="st0" d="M18,9h-4V4l0,0c1.1-1.1,2.9-1.1,4,0l0,0V9z"/>
</svg>
