<svg id="ship-departure" xmlns="http://www.w3.org/2000/svg" width="29.879" height="22.65" viewBox="0 0 29.879 22.65">
  <g id="ship_1_" data-name="ship (1)" transform="translate(0 0)">
    <path id="Path_10" data-name="Path 10" d="M272.482,176a.482.482,0,0,1,.482.482v1.928a.482.482,0,0,1-.964,0v-1.928A.482.482,0,0,1,272.482,176Z" transform="translate(-258.988 -169.735)"/>
    <path id="Path_11" data-name="Path 11" d="M248.482,176a.482.482,0,0,1,.482.482v1.928a.482.482,0,0,1-.964,0v-1.928A.482.482,0,0,1,248.482,176Z" transform="translate(-233.542 -169.735)"/>
    <path id="Path_12" data-name="Path 12" d="M296.482,176a.482.482,0,0,1,.482.482v1.928a.482.482,0,1,1-.964,0v-1.928A.482.482,0,0,1,296.482,176Z" transform="translate(-284.434 -169.735)"/>
    <path id="Path_13" data-name="Path 13" d="M384.482,176a.482.482,0,0,1,.482.482v1.928a.482.482,0,0,1-.964,0v-1.928A.482.482,0,0,1,384.482,176Z" transform="translate(-377.735 -169.735)"/>
    <path id="Path_14" data-name="Path 14" d="M360.482,176a.482.482,0,0,1,.482.482v1.928a.482.482,0,0,1-.964,0v-1.928A.482.482,0,0,1,360.482,176Z" transform="translate(-352.289 -169.735)"/>
    <path id="Path_15" data-name="Path 15" d="M408.482,178.892a.482.482,0,0,1-.482-.482v-1.928a.482.482,0,1,1,.964,0v1.928A.482.482,0,0,1,408.482,178.892Z" transform="translate(-403.181 -169.735)"/>
    <path id="Path_16" data-name="Path 16" d="M336.482,98.892A.482.482,0,0,1,336,98.41V96.482a.482.482,0,1,1,.964,0V98.41A.482.482,0,0,1,336.482,98.892Z" transform="translate(-326.843 -94.554)"/>
    <path id="Path_17" data-name="Path 17" d="M312.482,96a.482.482,0,0,1,.482.482V98.41a.482.482,0,1,1-.964,0V96.482A.482.482,0,0,1,312.482,96Z" transform="translate(-301.398 -94.554)"/>
    <path id="Path_18" data-name="Path 18" d="M360.482,98.892A.482.482,0,0,1,360,98.41V96.482a.482.482,0,1,1,.964,0V98.41A.482.482,0,0,1,360.482,98.892Z" transform="translate(-352.289 -94.554)"/>
    <path id="Path_19" data-name="Path 19" d="M8.482,89.349h3.076L8.051,82.336a.482.482,0,0,1,.431-.7h2.41V77.3a.482.482,0,0,1,.482-.482h2.41V72.482A.482.482,0,0,1,14.265,72h6.747a.482.482,0,0,1,.482.482v4.337h3.373a.482.482,0,0,1,.482.482v4.337h1.928V77.3a.482.482,0,0,1,.482-.482h1.928V75.373a.482.482,0,0,1,.482-.482h1.446v-2.41a.482.482,0,1,1,.964,0v.666l.266-.134a.482.482,0,0,1,.431.863l-.7.348v.666h.482a.482.482,0,0,1,.482.482v1.446h.964a.482.482,0,0,1,.482.482v4.337H37.4a.482.482,0,0,1,.467.6l-1.778,7.112H37.4a.482.482,0,0,1,0,.964H8.482a.482.482,0,0,1,0-.964Zm3.373-11.566v3.855h5.783V77.783Zm8.675-4.819H14.747v3.855H20.53Zm3.855,4.819H18.6v3.855h5.783Zm8.193-1.928H30.65v.964h1.928Zm1.446,1.928H28.241v.482h3.373a.482.482,0,0,1,.482.482v1.928a.482.482,0,0,1-.482.482H28.241v.482h5.783Zm-5.783,1.446v.964h2.892v-.964ZM12.635,89.349H35.093L36.78,82.6H9.261Z" transform="translate(-8 -72)"/>
    <path id="Path_20" data-name="Path 20" d="M48.482,264h3.855a.482.482,0,0,1,0,.964H48.482a.482.482,0,0,1,0-.964Z" transform="translate(-25.35 -252.434)"/>
    <path id="Path_21" data-name="Path 21" d="M136.482,264h.482a.482.482,0,0,1,0,.964h-.482a.482.482,0,0,1,0-.964Z" transform="translate(-115.278 -252.434)"/>
    <path id="Path_22" data-name="Path 22" d="M8.482,384.964a2.245,2.245,0,0,0,1.359-.413A3.181,3.181,0,0,1,11.7,384a3.181,3.181,0,0,1,1.854.551,2.44,2.44,0,0,0,2.717,0,3.4,3.4,0,0,1,3.709,0,2.439,2.439,0,0,0,2.717,0,3.4,3.4,0,0,1,3.709,0,2.439,2.439,0,0,0,2.717,0,3.4,3.4,0,0,1,3.709,0,2.44,2.44,0,0,0,2.717,0A3.18,3.18,0,0,1,37.4,384a.482.482,0,0,1,0,.964,2.245,2.245,0,0,0-1.358.413,3.4,3.4,0,0,1-3.709,0,2.439,2.439,0,0,0-2.717,0,3.4,3.4,0,0,1-3.709,0,2.439,2.439,0,0,0-2.717,0,3.4,3.4,0,0,1-3.709,0,2.439,2.439,0,0,0-2.717,0,3.4,3.4,0,0,1-3.709,0,2.245,2.245,0,0,0-1.359-.413,2.245,2.245,0,0,0-1.359.413,3.181,3.181,0,0,1-1.855.551.482.482,0,0,1,0-.964Z" transform="translate(-8 -365.205)"/>
    <path id="Path_23" data-name="Path 23" d="M8.482,416.964a2.245,2.245,0,0,0,1.359-.413A3.181,3.181,0,0,1,11.7,416a3.181,3.181,0,0,1,1.854.551,2.439,2.439,0,0,0,2.717,0,3.4,3.4,0,0,1,3.709,0,2.439,2.439,0,0,0,2.717,0,3.4,3.4,0,0,1,3.709,0,2.439,2.439,0,0,0,2.717,0,3.4,3.4,0,0,1,3.709,0,2.439,2.439,0,0,0,2.717,0A3.18,3.18,0,0,1,37.4,416a.482.482,0,0,1,0,.964,2.244,2.244,0,0,0-1.358.413,3.4,3.4,0,0,1-3.709,0,2.439,2.439,0,0,0-2.717,0,3.4,3.4,0,0,1-3.709,0,2.439,2.439,0,0,0-2.717,0,3.4,3.4,0,0,1-3.709,0,2.439,2.439,0,0,0-2.717,0,3.4,3.4,0,0,1-3.709,0,2.245,2.245,0,0,0-1.359-.413,2.244,2.244,0,0,0-1.359.413,3.181,3.181,0,0,1-1.855.551.482.482,0,1,1,0-.964Z" transform="translate(-8 -395.277)"/>
  </g>
</svg>
