<svg xmlns="http://www.w3.org/2000/svg" width="35.486" height="34.123" viewBox="0 0 35.486 34.123">
  <g id="Group_2489" data-name="Group 2489" transform="translate(-5.832 -8.168)">
    <path id="Path_76" data-name="Path 76" d="M79.831,27.235A6.693,6.693,0,0,1,86.093,33.5a.729.729,0,0,0,1.456-.091,8.152,8.152,0,0,0-7.627-7.627.729.729,0,1,0-.091,1.455Zm-.769,4.084a2.739,2.739,0,0,1,2.948,2.948.729.729,0,0,0,1.458-.039A4.182,4.182,0,0,0,79.1,29.861a.729.729,0,0,0-.039,1.458Z" transform="translate(-51.368 -12.475)" fill-rule="evenodd"/>
    <path id="Path_77" data-name="Path 77" d="M27.044,12.869A10.883,10.883,0,0,1,38.882,24.706a.729.729,0,1,0,1.452.132A12.341,12.341,0,0,0,26.912,11.417a.729.729,0,0,0,.132,1.452Zm7.371,20.7V31.2a1.71,1.71,0,0,1,1.71-1.709h3.484A1.709,1.709,0,0,1,41.318,31.2V42.361a2.2,2.2,0,0,1-2.2,2.2H8.028a2.2,2.2,0,0,1-2.2-2.2V35.766a2.2,2.2,0,0,1,2.2-2.2h15.5V31.2a1.71,1.71,0,0,1,1.709-1.709H28.72A1.71,1.71,0,0,1,30.43,31.2v2.374ZM39.86,31.2V42.361a.737.737,0,0,1-.737.737H8.028a.737.737,0,0,1-.737-.737V35.766a.737.737,0,0,1,.737-.737H24.256a.729.729,0,0,0,.729-.729V31.2a.251.251,0,0,1,.251-.251H28.72a.251.251,0,0,1,.251.251v3.1a.729.729,0,0,0,.729.729h5.444a.729.729,0,0,0,.729-.729V31.2a.251.251,0,0,1,.251-.251h3.484A.251.251,0,0,1,39.86,31.2Z" transform="translate(0 -2.266)" fill-rule="evenodd"/>
    <path id="Path_78" data-name="Path 78" d="M39.18,35.456a.729.729,0,0,0-.729-.729H35.728a.729.729,0,0,0-.729.729v2.722a.729.729,0,0,0,.729.729H38.45a.729.729,0,0,0,.729-.729Zm-2.722.729v1.264h1.264V36.185Zm-10.888-.729a.729.729,0,0,0-.729-.729H22.118a.729.729,0,0,0-.729.729v2.722a.729.729,0,0,0,.729.729H24.84a.729.729,0,0,0,.729-.729Zm-2.722.729v1.264h1.264V36.185Zm9.528-.729a.729.729,0,0,0-.729-.729H28.923a.729.729,0,0,0-.729.729v2.722a.729.729,0,0,0,.729.729h2.722a.729.729,0,0,0,.729-.729Zm-2.722.729v1.264h1.264V36.185Zm.632-15.95A2.861,2.861,0,1,0,33.146,23.1,2.862,2.862,0,0,0,30.284,20.236Zm0,1.458a1.4,1.4,0,1,1-1.4,1.4A1.4,1.4,0,0,1,30.284,21.694ZM24.84,32.763a.729.729,0,0,0,.71-.9L20.105,8.729a.729.729,0,0,0-.71-.562H16.674a.729.729,0,0,0-.71.562L10.519,31.867a.729.729,0,0,0,.71.9ZM17.251,9.625l-5.1,21.68H23.919l-5.1-21.68Z" transform="translate(-3.306 0)" fill-rule="evenodd"/>
    <path id="Path_79" data-name="Path 79" d="M33.833,8.9V32.034a.729.729,0,1,0,1.458,0V8.9a.729.729,0,1,0-1.458,0Z" transform="translate(-19.834)" fill-rule="evenodd"/>
    <path id="Path_80" data-name="Path 80" d="M19.281,28.291h5.284a.729.729,0,1,0,0-1.458H19.281a.729.729,0,0,0,0,1.458ZM18,33.736h7.846a.729.729,0,1,0,0-1.458H18a.729.729,0,1,0,0,1.458ZM16.719,39.18H27.127a.729.729,0,0,0,0-1.458H16.719a.729.729,0,0,0,0,1.458Z" transform="translate(-7.195 -13.222)" fill-rule="evenodd"/>
  </g>
</svg>
