<svg xmlns="http://www.w3.org/2000/svg" width="36.641" height="63.115" viewBox="0 0 36.641 63.115">
  <g id="Group_175" data-name="Group 175" transform="translate(-23.112 -1.439)">
    <path id="Path_81" data-name="Path 81" d="M50.392,75.409v-10.4H51.73a2.515,2.515,0,1,0,0-5.029H31.135a2.515,2.515,0,1,0,0,5.029h1.337v10.4h1.321v-10.4h4.33v10.4h1.321v-10.4H43.42v10.4h1.321v-10.4h4.33v10.4h1.321ZM59.254,38.12a2.514,2.514,0,0,0-2.514-2.515H26.126a2.515,2.515,0,0,0,0,5.029H56.739A2.515,2.515,0,0,0,59.254,38.12Z" transform="translate(0 -11.354)" fill="none" stroke="#000" stroke-width="1"/>
    <rect id="Rectangle_41" data-name="Rectangle 41" width="5.088" height="3.897" transform="translate(42.093 39.615)" fill="none" stroke="#000" stroke-width="1"/>
    <rect id="Rectangle_42" data-name="Rectangle 42" width="5.087" height="3.891" transform="translate(35.685 34.403)" fill="none" stroke="#000" stroke-width="1"/>
    <rect id="Rectangle_43" data-name="Rectangle 43" width="5.088" height="3.891" transform="translate(42.093 34.403)" fill="none" stroke="#000" stroke-width="1"/>
    <rect id="Rectangle_44" data-name="Rectangle 44" width="5.087" height="3.897" transform="translate(35.685 39.615)" fill="none" stroke="#000" stroke-width="1"/>
    <path id="Path_82" data-name="Path 82" d="M37.582,58.86H33.1l1.111,3.9h3.374Z" transform="translate(-3.219 -19.245)" fill="none" stroke="#000" stroke-width="1"/>
    <path id="Path_83" data-name="Path 83" d="M68.339,45.218H61.283V47.7h6.349Z" transform="translate(-12.783 -14.616)" fill="none" stroke="#000" stroke-width="1"/>
    <rect id="Rectangle_45" data-name="Rectangle 45" width="5.087" height="2.477" transform="translate(35.683 30.602)" fill="none" stroke="#000" stroke-width="1"/>
    <path id="Path_84" data-name="Path 84" d="M36.819,54.862V50.971H30.848l1.109,3.891Z" transform="translate(-2.455 -16.568)" fill="none" stroke="#000" stroke-width="1"/>
    <path id="Path_85" data-name="Path 85" d="M61.283,69.235h2.292l.707-2.477h-3Z" transform="translate(-12.783 -21.926)" fill="none" stroke="#000" stroke-width="1"/>
    <path id="Path_86" data-name="Path 86" d="M29.213,45.218,29.92,47.7h6.342V45.218Z" transform="translate(-1.901 -14.616)" fill="none" stroke="#000" stroke-width="1"/>
    <path id="Path_87" data-name="Path 87" d="M61.288,50.971v3.891h4.863l1.109-3.891Z" transform="translate(-12.785 -16.568)" fill="none" stroke="#000" stroke-width="1"/>
    <path id="Path_88" data-name="Path 88" d="M38.346,69.235V66.758H35.353l.707,2.477Z" transform="translate(-3.984 -21.926)" fill="none" stroke="#000" stroke-width="1"/>
    <path id="Path_89" data-name="Path 89" d="M65.775,58.86H61.288v3.9h3.375Z" transform="translate(-12.785 -19.245)" fill="none" stroke="#000" stroke-width="1"/>
    <rect id="Rectangle_46" data-name="Rectangle 46" width="5.087" height="2.477" transform="translate(35.683 44.833)" fill="none" stroke="#000" stroke-width="1"/>
    <rect id="Rectangle_47" data-name="Rectangle 47" width="5.087" height="2.477" transform="translate(42.091 44.833)" fill="none" stroke="#000" stroke-width="1"/>
    <rect id="Rectangle_48" data-name="Rectangle 48" width="5.087" height="2.477" transform="translate(42.091 30.602)" fill="none" stroke="#000" stroke-width="1"/>
    <path id="Path_90" data-name="Path 90" d="M31.493,20.6v2.332H56.532V20.6A1.94,1.94,0,0,0,54.6,18.657h-10.5V11.991a2.623,2.623,0,1,0-1.321,0v6.666H33.429A1.94,1.94,0,0,0,31.493,20.6Zm2.267-7.47L35,12.662a9.05,9.05,0,0,1,2.056-9.582l-.934-.934A10.374,10.374,0,0,0,33.76,13.13Z" transform="translate(-2.674)" fill="none" stroke="#000" stroke-width="1"/>
    <path id="Path_91" data-name="Path 91" d="M36.066,14.706a10.3,10.3,0,0,0,1.6,2.07l.934-.934a8.983,8.983,0,0,1-1.4-1.805Zm17.9-.115-1.147-.655a9.026,9.026,0,0,1-1.457,1.906l.934.934A10.334,10.334,0,0,0,53.969,14.591Zm-2.6-11.51A9.085,9.085,0,0,1,53.5,12.452l1.248.436A10.414,10.414,0,0,0,52.3,2.147ZM38.352,5.409,39.48,6.1a6.407,6.407,0,0,1,.943-1.2l-.934-.935A7.784,7.784,0,0,0,38.352,5.409Zm2.071,8.613a6.452,6.452,0,0,1-1.431-6.947l-1.228-.487a7.772,7.772,0,0,0,1.725,8.368Z" transform="translate(-4.226 0)" fill="none" stroke="#000" stroke-width="1"/>
    <path id="Path_92" data-name="Path 92" d="M53.042,8.445a6.438,6.438,0,0,1-1.585,6.512l.934.934A7.756,7.756,0,0,0,54.3,8.047ZM51.457,5.836a6.436,6.436,0,0,1,1.007,1.3L53.6,6.471A7.8,7.8,0,0,0,52.391,4.9Zm-8.235.886a5.2,5.2,0,0,0,0,7.349l.934-.934a3.881,3.881,0,0,1,0-5.481Z" transform="translate(-6.139 -0.935)" fill="none" stroke="#000" stroke-width="1"/>
    <path id="Path_93" data-name="Path 93" d="M53.712,8.59a3.88,3.88,0,0,1,0,5.481l.934.934a5.2,5.2,0,0,0,0-7.35Z" transform="translate(-10.214 -1.87)" fill="#fff" stroke="#000" stroke-width="1"/>
  </g>
</svg>
