<svg xmlns="http://www.w3.org/2000/svg" width="50.252" height="48.628" viewBox="0 0 50.252 48.628">
  <path id="Icon_weather-rain" data-name="Icon weather-rain" d="M5.568,31.885a11.575,11.575,0,0,1,2.618-7.442A11.683,11.683,0,0,1,14.8,20.249,14.305,14.305,0,0,1,19.919,12.1a14.043,14.043,0,0,1,9.091-3.176A14.419,14.419,0,0,1,43.021,20.006H43.8a12.035,12.035,0,0,1,6.012,1.576,11.821,11.821,0,0,1,6.012,10.3A11.986,11.986,0,0,1,50.1,42.163a11.4,11.4,0,0,1-5.818,1.721c-.315,0-.485-.145-.485-.412V40.248c0-.291.17-.436.485-.436a7.5,7.5,0,0,0,5.285-2.473,7.734,7.734,0,0,0,2.182-5.479,7.44,7.44,0,0,0-2.376-5.479,7.712,7.712,0,0,0-5.6-2.327h-3.9c-.291,0-.436-.145-.436-.412l-.194-1.406a9.88,9.88,0,0,0-3.37-6.569,10.353,10.353,0,0,0-13.818,0,9.745,9.745,0,0,0-3.3,6.569l-.17,1.285a.428.428,0,0,1-.485.461l-1.285.073a8.1,8.1,0,0,0-5.091,2.594,7.4,7.4,0,0,0-2.061,5.236,7.734,7.734,0,0,0,2.182,5.479,7.5,7.5,0,0,0,5.285,2.473c.267,0,.412.145.412.436V43.5a.371.371,0,0,1-.412.412A11.807,11.807,0,0,1,8.889,40.2,11.468,11.468,0,0,1,5.568,31.885ZM18.537,48.1a1.654,1.654,0,0,1,.1-.485L22.585,33.63a1.958,1.958,0,0,1,.776-1.067,2.028,2.028,0,0,1,1.115-.364,2.717,2.717,0,0,1,.582.073,1.824,1.824,0,0,1,1.309.9,1.978,1.978,0,0,1,.194,1.624L22.61,48.684a1.907,1.907,0,0,1-1.988,1.551,1.031,1.031,0,0,1-.267-.048,1.568,1.568,0,0,0-.242-.073,2.015,2.015,0,0,1-1.188-.8A2.169,2.169,0,0,1,18.537,48.1Zm6.351,6.812L30.8,33.654a1.6,1.6,0,0,1,.727-1.067,2.2,2.2,0,0,1,1.188-.364,3.009,3.009,0,0,1,.655.073,1.861,1.861,0,0,1,1.188.945,2.022,2.022,0,0,1,.17,1.551L28.84,56.077a1.761,1.761,0,0,1-.7,1.042,1.975,1.975,0,0,1-1.236.436,1.588,1.588,0,0,1-.606-.121,2.224,2.224,0,0,1-1.261-.945A1.921,1.921,0,0,1,24.888,54.914ZM34.9,48.151a2.584,2.584,0,0,1,.1-.558l3.951-13.987a2.012,2.012,0,0,1,.727-1.067,1.969,1.969,0,0,1,1.115-.364,2.961,2.961,0,0,1,.63.073A1.883,1.883,0,0,1,42.536,33a2.043,2.043,0,0,1,.364,1.139,2.781,2.781,0,0,1-.048.339c-.024.145-.048.242-.048.291L38.851,48.66a1.79,1.79,0,0,1-.679,1.115,2.049,2.049,0,0,1-1.236.412l-.582-.121a1.96,1.96,0,0,1-1.115-.776A2.22,2.22,0,0,1,34.9,48.151Z" transform="translate(-5.568 -8.928)" fill="#fff"/>
</svg>
