<svg xmlns="http://www.w3.org/2000/svg" width="36.204" height="28.224" viewBox="0 0 36.204 28.224">
  <defs>
    <style>
      .cls-1 {
        fill: #fff;
      }
    </style>
  </defs>
  <path id="wu-cloudy" class="cls-1" d="M0,21.544a6.67,6.67,0,0,0,3.308,5.79,6.5,6.5,0,0,0,3.334.891H21.227a6.659,6.659,0,0,0,6.68-6.68,6.9,6.9,0,0,0-.568-2.69A6.818,6.818,0,0,0,28.88,14.4a6.947,6.947,0,0,0-.555-2.746,6.9,6.9,0,0,0-3.756-3.758,7.015,7.015,0,0,0-7.974,1.794A7.27,7.27,0,0,0,12.957,8.8a8,8,0,0,0-7.831,6.276A6.591,6.591,0,0,0,0,21.544Zm2.3,0a4.154,4.154,0,0,1,1.131-2.917A4.448,4.448,0,0,1,6.263,17.2l.669-.038q.252,0,.252-.24l.088-.732a5.781,5.781,0,0,1,1.894-3.656,5.448,5.448,0,0,1,3.789-1.471,5.613,5.613,0,0,1,3.871,1.477,5.418,5.418,0,0,1,1.85,3.649l.1.783a.26.26,0,0,0,.278.228h2.172a4.4,4.4,0,0,1,4.357,4.344A4.279,4.279,0,0,1,24.3,24.668a4.179,4.179,0,0,1-3.076,1.3H6.642a4.145,4.145,0,0,1-3.056-1.308A4.282,4.282,0,0,1,2.3,21.544Zm9.028-16.53a1.2,1.2,0,0,0,.328.846l.884.859a1.3,1.3,0,0,0,.859.341,1,1,0,0,0,.745-.348,1.18,1.18,0,0,0,.328-.84,1,1,0,0,0-.354-.8l-.8-.884a1.2,1.2,0,0,0-.821-.328,1.145,1.145,0,0,0-.834.335A1.091,1.091,0,0,0,11.327,5.014Zm7.2,5.96a4.764,4.764,0,0,1,6.687.038,4.6,4.6,0,0,1,1.4,3.385,5,5,0,0,1-.682,2.475,6.448,6.448,0,0,0-4.7-1.932H20.8a8.134,8.134,0,0,0-2.273-3.965Zm2.185-7.11a1.127,1.127,0,0,0,.316.834,1.078,1.078,0,0,0,.8.316,1.084,1.084,0,0,0,1.149-1.149V1.111a1.068,1.068,0,0,0-.322-.8A1.131,1.131,0,0,0,21.821,0,1.079,1.079,0,0,0,20.71,1.111V3.864Zm7.438,3.094a1.153,1.153,0,0,0,.3.834,1.384,1.384,0,0,0,.834.328,1.347,1.347,0,0,0,.8-.328L32.011,5.86A1.246,1.246,0,0,0,32.339,5a1.1,1.1,0,0,0-.328-.808,1.083,1.083,0,0,0-.8-.328,1.018,1.018,0,0,0-.783.328L28.45,6.126a1.272,1.272,0,0,0-.3.834ZM29.22,22.895a1.2,1.2,0,0,0,.341.846l.871.846a1.018,1.018,0,0,0,.783.328,1.066,1.066,0,0,0,.8-.335,1.165,1.165,0,0,0,.322-.84,1.071,1.071,0,0,0-.328-.783l-.871-.871a1.055,1.055,0,0,0-.771-.328,1.119,1.119,0,0,0-.814.328,1.091,1.091,0,0,0-.335.808Zm1.97-8.5a1.007,1.007,0,0,0,.354.783,1.114,1.114,0,0,0,.821.328h2.753a1.043,1.043,0,0,0,.777-.316,1.09,1.09,0,0,0,.309-.8,1.155,1.155,0,0,0-.309-.814,1.017,1.017,0,0,0-.777-.335H32.365a1.14,1.14,0,0,0-.828.341A1.1,1.1,0,0,0,31.19,14.4Z"/>
</svg>
