<svg xmlns="http://www.w3.org/2000/svg" width="12.256" height="25" viewBox="0 0 12.256 25">
  <path id="Path_795" data-name="Path 795" d="M159.738,51.535l-1.064-14.258h.873V35.813h-.982l-.146-1.953h1.128V32.395h-1.231a3.179,3.179,0,0,0-2.431-2.843V28H154.42v1.551a3.179,3.179,0,0,0-2.431,2.843h-1.231v1.465h1.127l-.145,1.953h-.982v1.465h.872l-1.064,14.258H149V53h12.256V51.535ZM155.152,30.93a1.712,1.712,0,0,1,1.692,1.465h-3.383A1.712,1.712,0,0,1,155.152,30.93Zm-1.8,2.93h3.6l.146,1.953h-3.887Zm2.531,17.676v-2.93H154.42v2.93h-2.385L153.1,37.277h4.106l1.064,14.258Z" transform="translate(-149 -28)" fill="#fff"/>
</svg>
