<svg xmlns="http://www.w3.org/2000/svg" width="25" height="25" viewBox="0 0 25 25">
  <path id="Path_931" data-name="Path 931" d="M77.88,43.24a.488.488,0,0,0-.689-.048A4.443,4.443,0,0,1,75.506,44.3a2.966,2.966,0,0,1-2.169-.3l2.543-8.557a.488.488,0,0,0-.215-.557l-2.353-1.426V29.3a.488.488,0,0,0-.488-.488h-.977V27.348a.488.488,0,0,0-.488-.488H69.821V25.395a.488.488,0,0,0-.488-.488H66.965V21.488A.488.488,0,0,0,66.477,21H64.523a.488.488,0,0,0-.488.488v3.418H61.667a.488.488,0,0,0-.488.488V26.86H59.641a.488.488,0,0,0-.488.488v1.465h-.977a.488.488,0,0,0-.488.488v4.163L55.335,34.89a.488.488,0,0,0-.215.557l2.538,8.539c-.043-.146-.825-.242-.963-.26a4.421,4.421,0,0,0-3.527,1.419.488.488,0,0,0-.048.689.494.494,0,0,0,.689.048c1.055-.917,2.245-1.617,3.641-.918a4.059,4.059,0,0,0,3.886.21c1.061-.558,2.084-1.04,3.268-.477l1.217.58a3.7,3.7,0,0,0,3.262-.031,5.549,5.549,0,0,1,2.008-.791,4,4,0,0,1,2.025.529,3.735,3.735,0,0,0,2.68.243,5.394,5.394,0,0,0,2.038-1.3A.488.488,0,0,0,77.88,43.24ZM72.336,29.79v3.083L67.248,29.79Zm-7.324-7.813h.977v2.93h-.977Zm-2.856,3.907h6.689v.977H62.155ZM58.664,29.79h5.088l-5.088,3.083Zm6.348,14.021c0-.087-.7-.247-.787-.267a3.77,3.77,0,0,0-2.533.338,5.246,5.246,0,0,1-1.738.72h0a2.8,2.8,0,0,1-1.117-.088l-2.67-8.985,8.848-5.362Zm-4.883-15v-.977H70.871v.977Zm12.306,14.8c.005-.151-1.369-.15-1.461-.14a6.955,6.955,0,0,0-2.329.9,2.919,2.919,0,0,1-2.657-.1V30.168l8.848,5.362Z" transform="translate(46 -53) rotate(90)" fill="#fff"/>
</svg>
