<svg xmlns="http://www.w3.org/2000/svg" width="24.576" height="22.119" viewBox="0 0 24.576 22.119">
  <path id="Path_878" data-name="Path 878" d="M39.211,16.123H37.865V16a3.852,3.852,0,0,0-2.695-3.688v-.7a2.18,2.18,0,0,0-2.159-2.2H26.768a2.18,2.18,0,0,0-2.159,2.2v.7A3.852,3.852,0,0,0,21.914,16v1.671h-.777V10.157h2.013a.363.363,0,0,0,.294-.151.376.376,0,0,0,.055-.329l-.487-1.61a.365.365,0,0,0-.349-.262H19.234V6.822a.365.365,0,1,0-.73,0v.983h-.7V5.371a.365.365,0,1,0-.73,0V7.805H15.365A.368.368,0,0,0,15,8.176v1.61a.368.368,0,0,0,.365.371h.57v5.4a.365.365,0,1,0,.73,0v-5.4h3.741v1.13H17.632a.368.368,0,0,0-.365.371V13.69a.368.368,0,0,0,.365.371h2.774v3.61H16.665v-.627a.365.365,0,1,0-.73,0v.627h-.57a.368.368,0,0,0-.365.371v5.417a.368.368,0,0,0,.365.371,1.728,1.728,0,0,1,1.711,1.74v1.177a.368.368,0,0,0,.365.371H34.533a.371.371,0,0,0,0-.742H17.807V25.57a2.474,2.474,0,0,0-2.077-2.455v-.349H33.2a.371.371,0,0,0,0-.742H15.73V18.413H33.676a.365.365,0,0,0,.334-.222l.57-1.325h4.266v3.926l-1.7,5.585H35.993a.371.371,0,0,0,0,.742h1.426a.366.366,0,0,0,.349-.262l1.792-5.9a.372.372,0,0,0,.016-.109V16.495A.368.368,0,0,0,39.211,16.123ZM15.73,9.415V8.547h6.663l.262.868ZM18,12.029h.887v1.289H18Zm1.617,1.289V12.029h.792v1.289Zm5.724-1.706a1.443,1.443,0,0,1,1.429-1.453H33.01a1.443,1.443,0,0,1,1.429,1.453v.553c-.12-.012-.242-.018-.365-.018s-.245.007-.365.018v-.553a.706.706,0,0,0-.7-.711H26.768a.706.706,0,0,0-.7.711v.553c-.12-.012-.242-.018-.365-.018s-.245.007-.365.018Zm4.947,6.059h-.792V16a3.852,3.852,0,0,0-2.7-3.688v-.668H32.98v.668A3.852,3.852,0,0,0,30.285,16ZM22.644,16a3.06,3.06,0,1,1,6.12,0v1.671h-6.12Zm11.7.124a.365.365,0,0,0-.334.223l-.57,1.325H31.015V16a3.06,3.06,0,1,1,6.119,0v.124Z" transform="translate(-15 -5)" fill="#fff"/>
</svg>
