<svg xmlns="http://www.w3.org/2000/svg" width="25" height="17.188" viewBox="0 0 25 17.188">
  <path id="Path_796" data-name="Path 796" d="M324.469,33v2.417A3.9,3.9,0,0,0,323.1,36l-1.71-1.734-1.122,1.124L322,37.1a3.908,3.908,0,0,0-.586,1.367H319v1.562h2.417A3.872,3.872,0,0,0,322,41.4l-1.733,1.709,1.123,1.123L323.1,42.5a3.88,3.88,0,0,0,.757.391,3.866,3.866,0,0,0-.171,1.05,3.909,3.909,0,0,0,3.906,3.906h.9a8.128,8.128,0,0,1,.683-1.563h-1.586a2.344,2.344,0,1,1,0-4.687h.781v-.781a1.552,1.552,0,0,1,1.489-1.562l.781.049.147-.659a3.119,3.119,0,0,1,5.933-.61l.219.537.708-.073a.5.5,0,0,1,.1-.024,2.343,2.343,0,0,1,2.344,2.3l-.024.756.61.147a2.344,2.344,0,0,1-.586,4.614h-.782a3.107,3.107,0,0,1-.439,1.563h1.221a3.905,3.905,0,0,0,1.538-7.5,3.92,3.92,0,0,0-3.736-3.442,4.663,4.663,0,0,0-4.052-2.344,4.719,4.719,0,0,0-4.444,3.174,2.892,2.892,0,0,0-.513.122,3.923,3.923,0,0,0-.39-.757l1.733-1.709-1.123-1.123L327.4,36a3.867,3.867,0,0,0-1.367-.586V33Zm.781,3.906a2.332,2.332,0,0,1,2.3,1.9,3.183,3.183,0,0,0-.659,1.294,3.837,3.837,0,0,0-2.32,1.391,2.346,2.346,0,0,1,.684-4.59Zm10.938,6.25s-1.563,2.262-1.563,3.125a1.563,1.563,0,1,0,3.125,0C337.75,45.418,336.188,43.156,336.188,43.156ZM331.5,45.5s-.223.354-.488.781c-.1.156-.189.284-.293.464-.141.244-.269.482-.391.732-.061.125-.122.248-.171.367a2.287,2.287,0,0,0-.219.781,1.562,1.562,0,1,0,3.124,0,2.287,2.287,0,0,0-.219-.781c-.013-.024-.013-.046-.025-.073-.042-.094-.1-.2-.146-.293q-.312-.615-.684-1.2C331.723,45.854,331.5,45.5,331.5,45.5Z" transform="translate(-319 -33)" fill="#fff"/>
</svg>
