<svg xmlns="http://www.w3.org/2000/svg" width="25" height="25" viewBox="0 0 25 25">
  <g id="Group_2835" data-name="Group 2835" transform="translate(-257 -28.451)">
    <g id="Group_2834" data-name="Group 2834">
      <path id="Path_792" data-name="Path 792" d="M253,34.252a3.125,3.125,0,0,0-5.977-1.264l-2.668-.446-.261,1.541,2.681.447a3.126,3.126,0,0,0,1.928,2.612l-.761,5.738a3.118,3.118,0,0,0-2.754,3.087v.012l-9.007,2.374a3.109,3.109,0,0,0-2.311-1.562l-1.6-12.764a3.13,3.13,0,0,0,1.7-1.635l2.415.4.257-1.54-2.426-.405a3.117,3.117,0,1,0-3.5,3.359l1.6,12.762a3.124,3.124,0,1,0,4.274,2.9v-.012l9.006-2.374a3.117,3.117,0,1,0,3.887-4.409l.761-5.738A3.118,3.118,0,0,0,253,34.252Zm-21.874-1.562a1.562,1.562,0,1,1,1.562-1.562A1.562,1.562,0,0,1,231.126,32.689Zm2.344,18.745a1.562,1.562,0,1,1,1.562-1.562A1.563,1.563,0,0,1,233.47,51.434Zm16.4-5.467a1.563,1.563,0,1,1-1.562-1.562A1.562,1.562,0,0,1,249.875,45.967Zm-1.562-11.715a1.563,1.563,0,1,1,1.562,1.562A1.562,1.562,0,0,1,248.313,34.252Z" transform="translate(29 0.451)" fill="#fff"/>
      <path id="Path_793" data-name="Path 793" d="M242.814,32.284l-1.541-.257-.257,1.541,1.541.257Z" transform="translate(29 0.451)" fill="#fff"/>
      <path id="Path_794" data-name="Path 794" d="M239.727,31.77l-1.541-.257-.257,1.541,1.541.257Z" transform="translate(29 0.451)" fill="#fff"/>
    </g>
  </g>
</svg>
