<svg xmlns="http://www.w3.org/2000/svg" width="25.85" height="28.501" viewBox="0 0 25.85 28.501">
  <g id="payment" transform="translate(-1.25 -1.25)">
    <path id="Path_1045" data-name="Path 1045" d="M18.152,29.751H4.9A3.648,3.648,0,0,1,1.25,26.105V4.9A3.648,3.648,0,0,1,4.9,1.25H18.152A3.648,3.648,0,0,1,21.8,4.9V6.221a.994.994,0,1,1-1.988,0V4.9a1.66,1.66,0,0,0-1.657-1.657H4.9A1.66,1.66,0,0,0,3.238,4.9v21.21A1.66,1.66,0,0,0,4.9,27.762H18.152a1.66,1.66,0,0,0,1.657-1.657V23.454a.994.994,0,0,1,1.988,0v2.651A3.648,3.648,0,0,1,18.152,29.751Z" fill="#fff"/>
    <path id="Path_1046" data-name="Path 1046" d="M12.849,6.238H10.2a.994.994,0,1,1,0-1.988h2.651a.994.994,0,1,1,0,1.988Zm0,18.559H2.244a.994.994,0,1,1,0-1.988h10.6a.994.994,0,1,1,0,1.988Z" transform="translate(0 0.977)" fill="#fff"/>
    <path id="Path_1047" data-name="Path 1047" d="M21.826,21.495H9.9A3.648,3.648,0,0,1,6.25,17.849V9.9A3.648,3.648,0,0,1,9.9,6.25H21.826A3.648,3.648,0,0,1,25.472,9.9v7.954A3.648,3.648,0,0,1,21.826,21.495ZM9.9,8.238A1.66,1.66,0,0,0,8.238,9.9v7.954A1.66,1.66,0,0,0,9.9,19.506H21.826a1.66,1.66,0,0,0,1.657-1.657V9.9a1.66,1.66,0,0,0-1.657-1.657Z" transform="translate(1.628 1.628)" fill="#fff"/>
    <path id="Path_1048" data-name="Path 1048" d="M24.477,11.238H7.244a.994.994,0,0,1,0-1.988H24.477a.994.994,0,1,1,0,1.988Zm-3.977,5.3H17.849a.994.994,0,0,1,0-1.988H20.5a.994.994,0,0,1,0,1.988Z" transform="translate(1.628 2.605)" fill="#fff"/>
  </g>
</svg>
