<svg xmlns="http://www.w3.org/2000/svg" width="22.412" height="25.842" viewBox="0 0 22.412 25.842">
  <g id="report" transform="translate(-1.005 -0.997)">
    <path id="Path_1050" data-name="Path 1050" d="M2.821,1.1a.749.749,0,0,0-.748.749v22.2a.749.749,0,0,0,.748.749H21.6a.749.749,0,0,0,.748-.749V1.846A.749.749,0,0,0,21.6,1.1ZM21.6,25.867H2.821a1.82,1.82,0,0,1-1.816-1.82V1.846A1.82,1.82,0,0,1,2.821.026H21.6a1.82,1.82,0,0,1,1.816,1.82v22.2a1.82,1.82,0,0,1-1.816,1.82Z" transform="translate(0 0.971)" fill="#fff" fill-rule="evenodd"/>
    <path id="Path_1052" data-name="Path 1052" d="M54.83,23.6H69.768V2.068H54.83ZM70.3,24.674H54.3a.535.535,0,0,1-.534-.535V1.532A.535.535,0,0,1,54.3,1H70.3a.535.535,0,0,1,.534.535V24.138a.535.535,0,0,1-.534.535Z" transform="translate(-50.088 0)" fill="#fff" fill-rule="evenodd"/>
    <path id="Path_1054" data-name="Path 1054" d="M107.68,3.85h8.579V2.068H107.68Zm9.113,1.07h-9.647a.535.535,0,0,1-.534-.535V1.532A.535.535,0,0,1,107.146,1h9.647a.535.535,0,0,1,.534.535V4.385a.535.535,0,0,1-.534.535Zm.165,5.285h-6.373a.535.535,0,0,1,0-1.07h6.373a.535.535,0,0,1,0,1.07m-9.52.328a.532.532,0,0,1-.35-.131l-.825-.716a.535.535,0,0,1,.7-.809l.436.378L108.38,8.2a.535.535,0,1,1,.781.73l-1.333,1.432a.533.533,0,0,1-.391.17m9.52,3.666h-6.373a.535.535,0,0,1,0-1.07h6.373a.535.535,0,0,1,0,1.07m-9.52.328a.533.533,0,0,1-.35-.131l-.825-.716a.535.535,0,0,1,.7-.809l.436.378.982-1.055a.535.535,0,1,1,.781.73l-1.333,1.432a.533.533,0,0,1-.391.17m9.52,3.581h-6.373a.535.535,0,0,1,0-1.07h6.373a.535.535,0,0,1,0,1.07m-9.52.328a.533.533,0,0,1-.35-.131l-.825-.716a.535.535,0,0,1,.7-.809l.436.378.982-1.055a.535.535,0,1,1,.781.73l-1.333,1.432a.533.533,0,0,1-.391.17" transform="translate(-99.758 0)" fill="#fff" fill-rule="evenodd"/>
  </g>
</svg>
