<svg xmlns="http://www.w3.org/2000/svg" width="22.032" height="16.955" viewBox="0 0 22.032 16.955">
  <g id="Group_3790" data-name="Group 3790" transform="translate(0.074 0.062)">
    <path id="Stroke_1" data-name="Stroke 1" d="M0,5.8A2.9,2.9,0,1,0,0,0" transform="translate(16.595 1.629)" fill="none" stroke="#fff" stroke-linecap="round" stroke-linejoin="round" stroke-miterlimit="10" stroke-width="1.5"/>
    <path id="Stroke_3" data-name="Stroke 3" d="M0,0A9.435,9.435,0,0,1,1.423.206a2.337,2.337,0,0,1,1.712.978,1.381,1.381,0,0,1,0,1.184,2.361,2.361,0,0,1-1.712.984" transform="translate(17.929 10.585)" fill="none" stroke="#fff" stroke-linecap="round" stroke-linejoin="round" stroke-miterlimit="10" stroke-width="1.5"/>
    <path id="Stroke_5" data-name="Stroke 5" d="M2.9,5.8A2.9,2.9,0,1,1,2.9,0" transform="translate(2.388 1.629)" fill="none" stroke="#fff" stroke-linecap="round" stroke-linejoin="round" stroke-miterlimit="10" stroke-width="1.5"/>
    <path id="Stroke_7" data-name="Stroke 7" d="M3.268,0A9.435,9.435,0,0,0,1.845.206a2.334,2.334,0,0,0-1.711.978,1.375,1.375,0,0,0,0,1.184,2.358,2.358,0,0,0,1.711.984" transform="translate(0.688 10.585)" fill="none" stroke="#fff" stroke-linecap="round" stroke-linejoin="round" stroke-miterlimit="10" stroke-width="1.5"/>
    <path id="Stroke_9" data-name="Stroke 9" d="M6.021,0c3.247,0,6.021.491,6.021,2.458S9.286,4.933,6.021,4.933C2.773,4.933,0,4.441,0,2.475S2.756,0,6.021,0Z" transform="translate(4.917 11.21)" fill="none" stroke="#fff" stroke-linecap="round" stroke-linejoin="round" stroke-miterlimit="10" stroke-width="1.5"/>
    <path id="Stroke_11" data-name="Stroke 11" d="M3.858,7.717A3.859,3.859,0,1,1,7.716,3.858,3.845,3.845,0,0,1,3.858,7.717Z" transform="translate(7.079 0.688)" fill="none" stroke="#fff" stroke-linecap="round" stroke-linejoin="round" stroke-miterlimit="10" stroke-width="1.5"/>
  </g>
</svg>
