<svg xmlns="http://www.w3.org/2000/svg" width="21.583" height="22.666" viewBox="0 0 21.583 22.666">
  <path id="Home" d="M7.547,21.286V17.811a1.609,1.609,0,0,1,1.607-1.6h3.265a1.61,1.61,0,0,1,1.617,1.6h0v3.466a1.4,1.4,0,0,0,1.393,1.39h2.227a3.935,3.935,0,0,0,2.776-1.132,3.86,3.86,0,0,0,1.151-2.746V8.915a2.8,2.8,0,0,0-1.017-2.156L13,.764A3.545,3.545,0,0,0,8.5.845L1.1,6.759A2.8,2.8,0,0,0,0,8.915v9.863a3.908,3.908,0,0,0,3.926,3.889H6.1a1.4,1.4,0,0,0,.992-.4,1.374,1.374,0,0,0,.412-.98Z" fill="#fff"/>
</svg>
