<svg xmlns="http://www.w3.org/2000/svg" width="34.571" height="30" viewBox="0 0 34.571 30">
  <path id="Path_615" data-name="Path 615" d="M23.438,29.438V27.9H20.365a.771.771,0,0,1-.768-.768V24.06a.771.771,0,0,1,.768-.768h1.152V21.755a.768.768,0,1,1,1.536,0v1.536h1.152a.768.768,0,0,1,0,1.536H21.133v1.536h3.073a.771.771,0,0,1,.768.768v3.073a.771.771,0,0,1-.768.768H23.054v1.536a.768.768,0,1,1-1.536,0V30.974H20.365a.768.768,0,1,1,0-1.536Zm16.133-17.67v9.987a.771.771,0,0,1-.768.768H31.889V38.772c0,.038,0,.038-.038.077,0,.038,0,.038-.038.077,0,.038-.038.038-.038.077s-.038.038-.038.077-.038.038-.038.077a.038.038,0,0,1-.038.038l-.077.077-.038.038-2.228,1.536h-.038c-.038.038-.077.038-.154.077-.038,0-.038,0-.077.038-.077,0-.115.038-.192.038h0a.346.346,0,0,1-.192-.038c-.038,0-.038,0-.077-.038-.038,0-.077-.038-.154-.077h-.038l-1.767-1.229-1.767,1.229h-.038c-.038.038-.077.038-.154.077-.038,0-.038,0-.077.038-.077,0-.115.038-.192.038h0a.346.346,0,0,1-.192-.038c-.038,0-.038,0-.077-.038-.038,0-.077-.038-.154-.077h-.038l-1.652-1.268-1.767,1.229H20.48c-.038.038-.077.038-.154.077-.038,0-.038,0-.077.038-.077,0-.115.038-.192.038h0a.346.346,0,0,1-.192-.038c-.038,0-.038,0-.077-.038-.038,0-.077-.038-.154-.077H19.6L17.83,39.579l-1.767,1.229h-.038c-.038.038-.077.038-.154.077-.038,0-.038,0-.077.038-.077,0-.115.038-.192.038h0a.346.346,0,0,1-.192-.038c-.038,0-.038,0-.077-.038-.038,0-.077-.038-.154-.077h-.038l-2.19-1.536h0l-.038-.038-.077-.077-.038-.038c0-.038-.038-.038-.038-.077s-.038-.038-.038-.077-.038-.038-.038-.077,0-.038-.038-.077c0-.038,0-.038-.038-.077V22.524H5.768A.771.771,0,0,1,5,21.755V11.768A.771.771,0,0,1,5.768,11H38.726A.791.791,0,0,1,39.571,11.768ZM14.219,16.378v21.9l1.46,1,1.767-1.229h0c.038,0,.038-.038.077-.038l.038-.038c.038,0,.038,0,.077-.038h.384c.038,0,.038,0,.077.038.038,0,.038,0,.077.038.038,0,.038,0,.038.038.038,0,.038.038.077.038h0l1.767,1.229,1.767-1.229h0c.038,0,.038-.038.077-.038L21.94,38c.038,0,.038,0,.077-.038H22.4c.038,0,.038,0,.077.038.038,0,.038,0,.077.038.038,0,.038,0,.038.038.038,0,.038.038.077.038h0l1.767,1.229L26.2,38.119h0c.038,0,.038-.038.077-.038s.038-.038.077-.038.038,0,.077-.038c.038,0,.038,0,.077-.038h.307c.038,0,.038,0,.077.038.038,0,.038,0,.077.038.038,0,.038.038.077.038s.038.038.077.038h0l1.767,1.229,1.46-1.076v-21.9Zm17.67,4.609h6.146V12.536H6.536v8.451h6.146V16.378h-2.3v1.536a.768.768,0,1,1-1.536,0v-2.3a.771.771,0,0,1,.768-.768H34.962a.771.771,0,0,1,.768.768v2.3a.768.768,0,1,1-1.536,0V16.378h-2.3Z" transform="translate(-5 -11)" fill="#fff"/>
</svg>
