<svg xmlns="http://www.w3.org/2000/svg" width="29.994" height="30" viewBox="0 0 29.994 30">
  <path id="Path_614" data-name="Path 614" d="M18.5,23h-9a1.5,1.5,0,1,0,0,3h9a1.5,1.5,0,1,0,0-3Zm-6-9h3a1.5,1.5,0,1,0,0-3h-3a1.5,1.5,0,1,0,0,3Zm18,3H26V3.5a1.5,1.5,0,0,0-2.25-1.3l-4.5,2.579L14.747,2.2a1.5,1.5,0,0,0-1.5,0l-4.5,2.579L4.25,2.2A1.5,1.5,0,0,0,2,3.5v24A4.5,4.5,0,0,0,6.5,32h21a4.5,4.5,0,0,0,4.5-4.5v-9A1.5,1.5,0,0,0,30.494,17ZM6.5,29A1.5,1.5,0,0,1,5,27.5V6.1l3,1.71a1.62,1.62,0,0,0,1.5,0L14,5.226l4.5,2.579a1.62,1.62,0,0,0,1.5,0L23,6.1V27.5a4.5,4.5,0,0,0,.27,1.5Zm22.5-1.5a1.5,1.5,0,1,1-3,0V20h3ZM18.5,17h-9a1.5,1.5,0,1,0,0,3h9a1.5,1.5,0,1,0,0-3Z" transform="translate(-2 -1.996)" fill="#fff"/>
</svg>
