<svg xmlns="http://www.w3.org/2000/svg" width="32.542" height="23.68" viewBox="0 0 32.542 23.68">
  <g id="Icon_awesome-money-check-alt" data-name="Icon awesome-money-check-alt" transform="translate(1.5 -0.75)" fill="none">
    <path d="M28.065,2.25H1.477A1.477,1.477,0,0,0,0,3.727V21.453A1.477,1.477,0,0,0,1.477,22.93H28.065a1.477,1.477,0,0,0,1.477-1.477V3.727A1.477,1.477,0,0,0,28.065,2.25ZM8.124,15.908v.744a.369.369,0,0,1-.369.369H7.016a.369.369,0,0,1-.369-.369V15.9A2.643,2.643,0,0,1,5.2,15.376a.37.37,0,0,1-.026-.56l.542-.517a.379.379,0,0,1,.468-.034,1.111,1.111,0,0,0,.592.172h1.3a.58.58,0,0,0,.545-.609.6.6,0,0,0-.4-.588l-2.077-.623a2.089,2.089,0,0,1-1.458-2,2.056,2.056,0,0,1,1.97-2.08V7.789a.369.369,0,0,1,.369-.369h.739a.369.369,0,0,1,.369.369v.752a2.64,2.64,0,0,1,1.448.524.37.37,0,0,1,.026.56l-.542.517a.379.379,0,0,1-.468.034A1.107,1.107,0,0,0,8,10H6.7a.58.58,0,0,0-.545.609.6.6,0,0,0,.4.588l2.077.623a2.089,2.089,0,0,1,1.458,2A2.055,2.055,0,0,1,8.124,15.908ZM19.2,15.175a.369.369,0,0,1-.369.369h-5.17a.369.369,0,0,1-.369-.369v-.739a.369.369,0,0,1,.369-.369h5.17a.369.369,0,0,1,.369.369Zm7.386,0a.369.369,0,0,1-.369.369H22.526a.369.369,0,0,1-.369-.369v-.739a.369.369,0,0,1,.369-.369h3.693a.369.369,0,0,1,.369.369Zm0-4.431a.369.369,0,0,1-.369.369H13.663a.369.369,0,0,1-.369-.369V10a.369.369,0,0,1,.369-.369H26.219a.369.369,0,0,1,.369.369Z" stroke="none"/>
    <path d="M 1.47712516784668 2.250003814697266 C 0.6614742279052734 2.250003814697266 -5.7220458984375e-06 2.911474227905273 -5.7220458984375e-06 3.727123260498047 L -5.7220458984375e-06 21.45256423950195 C -5.7220458984375e-06 22.26821327209473 0.6614742279052734 22.92968368530273 1.47712516784668 22.92968368530273 L 28.06528472900391 22.92968368530273 C 28.88093566894531 22.92968368530273 29.54240417480469 22.26821327209473 29.54240417480469 21.45256423950195 L 29.54240417480469 3.727123260498047 C 29.54240417480469 2.911474227905273 28.88093566894531 2.250003814697266 28.06528472900391 2.250003814697266 L 1.47712516784668 2.250003814697266 M 8.807424545288086 10.24125862121582 C 8.732358932495117 10.24125862121582 8.656026840209961 10.21917057037354 8.588075637817383 10.17659378051758 C 8.409435272216797 10.06443405151367 8.206785202026367 10.00488376617432 7.996294021606445 10.00488376617432 L 6.698745727539062 10.00488376617432 C 6.398704528808594 10.00488376617432 6.154054641723633 10.27815341949463 6.154054641723633 10.61373329162598 C 6.154054641723633 10.88838386535645 6.320695877075195 11.13026332855225 6.558874130249023 11.20135402679443 L 8.636074066162109 11.82451343536377 C 9.494194030761719 12.0820837020874 10.09381484985352 12.90557384490967 10.09381484985352 13.82739353179932 C 10.09381484985352 14.95969390869141 9.21446418762207 15.87874412536621 8.124164581298828 15.90782356262207 L 8.124164581298828 16.65192413330078 C 8.124164581298828 16.85595321655273 7.958904266357422 17.02120399475098 7.754884719848633 17.02120399475098 L 7.016324996948242 17.02120399475098 C 6.812294006347656 17.02120399475098 6.647045135498047 16.85595321655273 6.647045135498047 16.65192413330078 L 6.647045135498047 15.89997386932373 C 6.125894546508789 15.87320327758789 5.619054794311523 15.69133377075195 5.199005126953125 15.37606334686279 C 5.018974304199219 15.24081420898438 5.009744644165039 14.9712438583374 5.172695159912109 14.81568336486816 L 5.71507453918457 14.2982234954834 C 5.842933654785156 14.17636489868164 6.033115386962891 14.17082405090332 6.182674407958984 14.26453399658203 C 6.36131477355957 14.37623405456543 6.563955307006836 14.43624401092529 6.774444580078125 14.43624401092529 L 8.072004318237305 14.43624401092529 C 8.372045516967773 14.43624401092529 8.61668586730957 14.16297340393066 8.61668586730957 13.82739353179932 C 8.61668586730957 13.55274391174316 8.450054168701172 13.31086349487305 8.211864471435547 13.23977375030518 L 6.134664535522461 12.61661338806152 C 5.276554107666016 12.35904407501221 4.676935195922852 11.53555393218994 4.676935195922852 10.61373329162598 C 4.676935195922852 9.481893539428711 5.5562744140625 8.562383651733398 6.646585464477539 8.533304214477539 L 6.646585464477539 7.789203643798828 C 6.646585464477539 7.585174560546875 6.811834335327148 7.419923782348633 7.015865325927734 7.419923782348633 L 7.754425048828125 7.419923782348633 C 7.958444595336914 7.419923782348633 8.12370491027832 7.585174560546875 8.12370491027832 7.789203643798828 L 8.12370491027832 8.541152954101562 C 8.644844055175781 8.567924499511719 9.15168571472168 8.749322891235352 9.571744918823242 9.0650634765625 C 9.751764297485352 9.200313568115234 9.760995864868164 9.469883918762207 9.598054885864258 9.625443458557129 L 9.055675506591797 10.14290332794189 C 8.985902786254883 10.209397315979 8.897577285766602 10.24125862121582 8.807424545288086 10.24125862121582 M 26.21888542175293 11.1127233505249 L 13.66336536407471 11.1127233505249 C 13.45933532714844 11.1127233505249 13.2940845489502 10.94747352600098 13.2940845489502 10.74344348907471 L 13.2940845489502 10.00488376617432 C 13.2940845489502 9.800853729248047 13.45933532714844 9.635603904724121 13.66336536407471 9.635603904724121 L 26.21888542175293 9.635603904724121 C 26.42291450500488 9.635603904724121 26.58816528320312 9.800853729248047 26.58816528320312 10.00488376617432 L 26.58816528320312 10.74344348907471 C 26.58816528320312 10.94747352600098 26.42291450500488 11.1127233505249 26.21888542175293 11.1127233505249 M 18.83328628540039 15.54408359527588 L 13.66336536407471 15.54408359527588 C 13.45933532714844 15.54408359527588 13.2940845489502 15.37883377075195 13.2940845489502 15.17480373382568 L 13.2940845489502 14.43624401092529 C 13.2940845489502 14.23221397399902 13.45933532714844 14.0669641494751 13.66336536407471 14.0669641494751 L 18.83328628540039 14.0669641494751 C 19.03731536865234 14.0669641494751 19.20256423950195 14.23221397399902 19.20256423950195 14.43624401092529 L 19.20256423950195 15.17480373382568 C 19.20256423950195 15.37883377075195 19.03731536865234 15.54408359527588 18.83328628540039 15.54408359527588 M 26.21888542175293 15.54408359527588 L 22.52608489990234 15.54408359527588 C 22.32206535339355 15.54408359527588 22.15680503845215 15.37883377075195 22.15680503845215 15.17480373382568 L 22.15680503845215 14.43624401092529 C 22.15680503845215 14.23221397399902 22.32206535339355 14.0669641494751 22.52608489990234 14.0669641494751 L 26.21888542175293 14.0669641494751 C 26.42291450500488 14.0669641494751 26.58816528320312 14.23221397399902 26.58816528320312 14.43624401092529 L 26.58816528320312 15.17480373382568 C 26.58816528320312 15.37883377075195 26.42291450500488 15.54408359527588 26.21888542175293 15.54408359527588 M 1.47712516784668 0.7500038146972656 L 28.06528472900391 0.7500038146972656 C 29.70687484741211 0.7500038146972656 31.04240417480469 2.085533142089844 31.04240417480469 3.727123260498047 L 31.04240417480469 21.45256423950195 C 31.04240417480469 23.09415435791016 29.70687484741211 24.42968368530273 28.06528472900391 24.42968368530273 L 1.47712516784668 24.42968368530273 C -0.1644744873046875 24.42968368530273 -1.500005722045898 23.09415435791016 -1.500005722045898 21.45256423950195 L -1.500005722045898 3.727123260498047 C -1.500005722045898 2.085533142089844 -0.1644744873046875 0.7500038146972656 1.47712516784668 0.7500038146972656 Z" stroke="none" fill="#fff"/>
  </g>
</svg>
