<svg xmlns="http://www.w3.org/2000/svg" width="36.124" height="24.68" viewBox="0 0 36.124 24.68">
  <g id="Icon_awesome-money-bill" data-name="Icon awesome-money-bill" transform="translate(2 -2.5)" fill="none">
    <path d="M30.518,4.5H1.606A1.668,1.668,0,0,0,0,6.223V23.456A1.668,1.668,0,0,0,1.606,25.18H30.518a1.668,1.668,0,0,0,1.606-1.723V6.223A1.668,1.668,0,0,0,30.518,4.5ZM2.409,22.595V19.148a3.335,3.335,0,0,1,3.212,3.447Zm0-12.063V7.085H5.622A3.335,3.335,0,0,1,2.409,10.532ZM16.062,20.01c-2.218,0-4.016-2.315-4.016-5.17s1.8-5.17,4.016-5.17,4.016,2.315,4.016,5.17S18.279,20.01,16.062,20.01Zm13.653,2.585H26.5a3.335,3.335,0,0,1,3.212-3.447Zm0-12.063A3.335,3.335,0,0,1,26.5,7.085h3.212Z" stroke="none"/>
    <path d="M 1.606201171875 4.500003814697266 C 0.7192726135253906 4.500003814697266 0 5.271713256835938 0 6.223302841186523 L 0 23.45638275146484 C 0 24.40796279907227 0.7192726135253906 25.17968368530273 1.606201171875 25.17968368530273 L 30.517822265625 25.17968368530273 C 31.40474128723145 25.17968368530273 32.1240234375 24.40796279907227 32.1240234375 23.45638275146484 L 32.1240234375 6.223302841186523 C 32.1240234375 5.271713256835938 31.40474128723145 4.500003814697266 30.517822265625 4.500003814697266 L 1.606201171875 4.500003814697266 M 2.4093017578125 10.53157424926758 L 2.4093017578125 7.084962844848633 L 5.621702194213867 7.084962844848633 C 5.621702194213867 8.988674163818359 4.183650970458984 10.53157424926758 2.4093017578125 10.53157424926758 M 26.50232124328613 7.084962844848633 L 29.7147216796875 7.084962844848633 L 29.7147216796875 10.53157424926758 C 27.94037246704102 10.53157424926758 26.50232124328613 8.988674163818359 26.50232124328613 7.084962844848633 M 16.06201171875 20.00976371765137 C 13.84395217895508 20.00976371765137 12.04651260375977 17.69461441040039 12.04651260375977 14.83984375 C 12.04651260375977 11.98454284667969 13.84445190429688 9.669923782348633 16.06201171875 9.669923782348633 C 18.27957153320312 9.669923782348633 20.07751083374023 11.98454284667969 20.07751083374023 14.83984375 C 20.07751083374023 17.69568252563477 18.27907180786133 20.00976371765137 16.06201171875 20.00976371765137 M 5.621702194213867 22.59472274780273 L 2.4093017578125 22.59472274780273 L 2.4093017578125 19.14811325073242 C 4.183650970458984 19.14811325073242 5.621702194213867 20.69101333618164 5.621702194213867 22.59472274780273 M 29.7147216796875 22.59472274780273 L 26.50232124328613 22.59472274780273 C 26.50232124328613 20.69101333618164 27.94037246704102 19.14811325073242 29.7147216796875 19.14811325073242 L 29.7147216796875 22.59472274780273 M 1.606201171875 2.500003814697266 L 30.517822265625 2.500003814697266 C 32.50629043579102 2.500003814697266 34.1240234375 4.170272827148438 34.1240234375 6.223302841186523 L 34.1240234375 23.45638275146484 C 34.1240234375 25.50941467285156 32.50629043579102 27.17968368530273 30.517822265625 27.17968368530273 L 1.606201171875 27.17968368530273 C -0.3822669982910156 27.17968368530273 -2 25.50941467285156 -2 23.45638275146484 L -2 6.223302841186523 C -2 4.170272827148438 -0.3822669982910156 2.500003814697266 1.606201171875 2.500003814697266 Z M 16.06201171875 18.00976371765137 C 17.01531219482422 18.00976371765137 18.07751083374023 16.70792388916016 18.07751083374023 14.83984375 C 18.07751083374023 12.97176361083984 17.01531219482422 11.66992378234863 16.06201171875 11.66992378234863 C 15.10871124267578 11.66992378234863 14.04651260375977 12.97176361083984 14.04651260375977 14.83984375 C 14.04651260375977 16.70792388916016 15.10871124267578 18.00976371765137 16.06201171875 18.00976371765137 Z" stroke="none" fill="#fff"/>
  </g>
</svg>
