<svg xmlns="http://www.w3.org/2000/svg" width="14.459" height="14.668" viewBox="0 0 14.459 14.668">
  <path id="Icon_awesome-user-tie" data-name="Icon awesome-user-tie" d="M7.229,7.334a3.92,3.92,0,0,0,4.131-3.667A3.92,3.92,0,0,0,7.229,0,3.92,3.92,0,0,0,3.1,3.667,3.92,3.92,0,0,0,7.229,7.334Zm3.092.934L8.779,13.751l-1.033-3.9,1.033-1.6H5.68l1.033,1.6-1.033,3.9L4.138,8.268A4.084,4.084,0,0,0,0,12.1v1.192a1.47,1.47,0,0,0,1.549,1.375H12.91a1.47,1.47,0,0,0,1.549-1.375V12.1a4.084,4.084,0,0,0-4.138-3.833Z" fill="#fff"/>
</svg>
