<svg xmlns="http://www.w3.org/2000/svg" width="30" height="30" viewBox="0 0 30 30">
  <path id="Path_616" data-name="Path 616" d="M15.55.529a1,1,0,0,0-.6.187L11.009,3.529H5.531a1,1,0,0,0-1,1V8.157L.948,10.716a1,1,0,0,0-.419.813v18a1,1,0,0,0,1,1h8a1,1,0,1,0,0-2h-4.6l23.6-15.168V25.529a2.972,2.972,0,0,1-3,3h-8a1,1,0,1,0,0,2h8a5.011,5.011,0,0,0,5-5v-14a1,1,0,0,0-.419-.813L26.528,8.157V4.53a1,1,0,0,0-1-1H20.049L16.11.716A1,1,0,0,0,15.55.529Zm-.021,2.228,1.08.771h-2.16Zm-9,2.772h18v8.022L15.5,19.359,6.531,13.57Zm13.057,3-.059,0h-8a1,1,0,1,0,0,2h8a1,1,0,1,0,.059-2ZM4.53,10.614v1.663l-1.223-.789Zm22,0,1.218.87-1.218.782Zm-15,1.914a1,1,0,0,0,0,2h4a1,1,0,1,0,0-2Zm-9,.837,11.12,7.182L2.529,27.7Zm11,15.164a1,1,0,1,0,1,1A1,1,0,0,0,13.529,28.529Z" transform="translate(-0.529 -0.529)" fill="#fff" fill-rule="evenodd"/>
</svg>
