<svg xmlns="http://www.w3.org/2000/svg" width="25.642" height="17.949" viewBox="0 0 25.642 17.949">
  <path id="Icon_awesome-users" data-name="Icon awesome-users" d="M3.846,9.942A2.564,2.564,0,1,0,1.282,7.378,2.567,2.567,0,0,0,3.846,9.942Zm17.949,0a2.564,2.564,0,1,0-2.564-2.564A2.567,2.567,0,0,0,21.8,9.942Zm1.282,1.282H20.513a2.557,2.557,0,0,0-1.807.745,5.86,5.86,0,0,1,3.009,4.383H24.36a1.281,1.281,0,0,0,1.282-1.282V13.789A2.567,2.567,0,0,0,23.077,11.225Zm-10.257,0A4.487,4.487,0,1,0,8.334,6.737,4.485,4.485,0,0,0,12.821,11.225ZM15.9,12.507h-.333a6.2,6.2,0,0,1-5.489,0H9.744a4.617,4.617,0,0,0-4.615,4.615v1.154A1.924,1.924,0,0,0,7.051,20.2H18.59a1.924,1.924,0,0,0,1.923-1.923V17.122A4.617,4.617,0,0,0,15.9,12.507ZM6.935,11.97a2.557,2.557,0,0,0-1.807-.745H2.564A2.567,2.567,0,0,0,0,13.789v1.282a1.281,1.281,0,0,0,1.282,1.282h2.64A5.875,5.875,0,0,1,6.935,11.97Z" transform="translate(0 -2.25)" fill="#fff"/>
</svg>
