<svg xmlns="http://www.w3.org/2000/svg" width="35.326" height="31.75" viewBox="0 0 35.326 31.75">
  <g id="Ship_Arrival" data-name="Ship Arrival" transform="translate(-152.123 -150.275)">
    <g id="g30" transform="translate(152.123 150.275)">
      <path id="path20" d="M195.649,125.068l3.492-10.608c.161-.5-.074-1.082-.435-1.082h-2.431c-8.437,0-1.263.016-7.72,0h-1.945V106.65c0-.413-.218-.748-.486-.748h-1.945V103.66c0-.413-.218-.748-.486-.748h-1.459V99.175c0-.413-.218-.748-.486-.748s-.486.335-.486.748v1.034l-.269-.207c-.24-.185-.533-.035-.653.335a.967.967,0,0,0,.218,1l.7.54v1.034h-.486c-.269,0-.486.335-.486.748V105.9h-.973c-.269,0-.486.335-.486.748v6.728H176.4c-.316,0-.548.457-.472.929l1.794,11.032,17.649-.271c.269,0-.492-.393-.492.02s.218-.091.486-.091h.249c.018-.5.037.757.037.071Zm-14.388-20.661h1.945v1.5h-1.945ZM179.8,107.4h5.835v.748h-3.4c-.269,0-.486.335-.486.748v2.99c0,.413.218.748.486.748h3.4v.748H179.8Zm5.835,2.243v1.5h-2.918v-1.5Zm8.925,15.428-15.839.271-1.7-10.466h20.9Z" transform="translate(-175.912 -98.427)" fill="#fff"/>
      <path id="path22" d="M200.6,248.314h-3.89c-.648,0-.648,1.494,0,1.5h3.89c.268,0,.486-.335.486-.748S200.872,248.315,200.6,248.314Z" transform="translate(-193.796 -230.372)" fill="#fff"/>
      <path id="path24" d="M241.883,248.314H241.4c-.648,0-.648,1.494,0,1.5h.486c.268,0,.486-.335.486-.748S242.151,248.315,241.883,248.314Z" transform="translate(-233.13 -230.372)" fill="#fff"/>
      <path id="path943" d="M267.265,308.274a3.166,3.166,0,0,1-4.028,0,4.4,4.4,0,0,0-5.5,0,3.166,3.166,0,0,1-4.027,0,4.4,4.4,0,0,0-5.5,0,3.167,3.167,0,0,1-4.028,0,4.237,4.237,0,0,0-2.749-.964.855.855,0,0,0,0,1.687,2.994,2.994,0,0,1,2.014.723,4.4,4.4,0,0,0,5.5,0,3.166,3.166,0,0,1,4.028,0,4.4,4.4,0,0,0,5.5,0,3.166,3.166,0,0,1,4.028,0,4.4,4.4,0,0,0,5.5,0C268.61,309.227,268.122,307.942,267.265,308.274Z" transform="translate(-232.963 -282.307)" fill="#fff"/>
      <path id="path945" d="M267.265,336.455a3.166,3.166,0,0,1-4.028,0,4.4,4.4,0,0,0-5.5,0,3.166,3.166,0,0,1-4.027,0,4.4,4.4,0,0,0-5.5,0,3.167,3.167,0,0,1-4.028,0,4.238,4.238,0,0,0-2.749-.964.855.855,0,0,0,0,1.687,2.994,2.994,0,0,1,2.014.723,4.4,4.4,0,0,0,5.5,0,3.166,3.166,0,0,1,4.028,0,4.4,4.4,0,0,0,5.5,0,3.166,3.166,0,0,1,4.028,0,4.4,4.4,0,0,0,5.5,0C268.651,337.486,268.112,336.171,267.265,336.455Z" transform="translate(-232.963 -307.114)" fill="#fff"/>
      <path id="path867" d="M204.655,308.274a3.166,3.166,0,0,1-4.028,0,4.4,4.4,0,0,0-5.5,0,3.166,3.166,0,0,1-4.028,0,4.4,4.4,0,0,0-5.5,0,3.167,3.167,0,0,1-4.028,0c-1.5.01-1.163,1.145-.735,1.446a4.4,4.4,0,0,0,5.5,0,3.166,3.166,0,0,1,4.028,0,4.4,4.4,0,0,0,5.5,0,3.166,3.166,0,0,1,4.028,0,4.4,4.4,0,0,0,5.5,0C206,309.227,205.511,307.942,204.655,308.274Z" transform="translate(-179.928 -282.307)" fill="#fff"/>
      <path id="path869" d="M205.214,336.455a3.166,3.166,0,0,1-4.028,0,4.4,4.4,0,0,0-5.5,0,3.166,3.166,0,0,1-4.028,0,4.4,4.4,0,0,0-5.5,0,3.167,3.167,0,0,1-4.028,0c-.991-.29-1.317,1.088-.735,1.446a4.4,4.4,0,0,0,5.5,0,3.166,3.166,0,0,1,4.028,0,4.4,4.4,0,0,0,5.5,0,3.166,3.166,0,0,1,4.028,0,4.4,4.4,0,0,0,5.5,0C206.6,337.486,206.061,336.171,205.214,336.455Z" transform="translate(-180.488 -307.114)" fill="#fff"/>
    </g>
    <g id="g963" transform="translate(186.299 177.07) rotate(180)">
      <g id="g897" transform="translate(0 0)">
        <g id="g895">
          <path id="path893" d="M10.986.53v.554c-.008.793-.006.795,0,2v6.47a.909.909,0,0,1-.787.994H7.721l-.663,4.288a1.834,1.834,0,0,1,.32.473,2.278,2.278,0,0,1,.041,1.835A2.949,2.949,0,0,1,4.8,19.139a2.949,2.949,0,0,1-2.618-1.991,2.278,2.278,0,0,1,.041-1.835,1.832,1.832,0,0,1,.32-.473l-.663-4.288H.8c-.435,0-.787-.157-.787-.706S.365,9.132.8,9.132H9.9V7.5H.673C.238,7.5,0,7.4,0,6.855s.238-.649.673-.649H9.9V1.012c-.013-.994,0-.062,0-1.012.758,0,.342,0,1.087,0,.012.863,0-.137.007.527ZM4.8,17.833c.46,0,1.463-.287,1.512-1.224-.161-1.067-3.062-1.048-3.121,0C3.2,17.578,4.34,17.833,4.8,17.833ZM3.161,11.066l.47,3.33H6.064l.4-3.33Z" fill="#fff"/>
        </g>
      </g>
    </g>
  </g>
</svg>
