<svg xmlns="http://www.w3.org/2000/svg" xmlns:xlink="http://www.w3.org/1999/xlink" width="120.866" height="100.429" viewBox="0 0 120.866 100.429">
  <defs>
    <filter id="Path_674" x="0" y="0" width="120.866" height="62.643" filterUnits="userSpaceOnUse">
      <feOffset dy="3" input="SourceAlpha"/>
      <feGaussianBlur stdDeviation="3" result="blur"/>
      <feFlood flood-opacity="0.161"/>
      <feComposite operator="in" in2="blur"/>
      <feComposite in="SourceGraphic"/>
    </filter>
  </defs>
  <g id="Group_4018" data-name="Group 4018" transform="translate(-698.566 -1041.267)">
    <text id="MASTER_CABLE" data-name="MASTER CABLE" transform="translate(759 1138.695)" fill="#fff" font-size="15" font-family="Arial-BoldMT, Arial" font-weight="700"><tspan x="-59.583" y="0">MASTER CABLE</tspan></text>
    <g id="Artboard11" transform="translate(700.805 1027.959)">
      <g id="Group_2953" data-name="Group 2953" transform="translate(8.011 21.381)">
        <g transform="matrix(1, 0, 0, 1, -10.25, -8.07)" filter="url(#Path_674)">
          <path id="Path_674-2" data-name="Path 674" d="M192.063,252.072l48.6-10.806a1.912,1.912,0,0,1,2.326,1.866h0a1.719,1.719,0,0,1-1.124,1.613l-24.8,9.148-21.6,2.713a6.432,6.432,0,0,1,.112,1.193v6.808h8.837v-2.225h2.438V259.1l7.627-.8v4.08h2.587v2.225h4.851a2.661,2.661,0,0,1,2.661,2.661V269.3a2.667,2.667,0,0,1-.059.557h23.266c-12.685-2.522-23.544-12.251-23.544-12.251-1.239-.75-1.614,0-1.614,0l-.043,1.427-2.551.065.012-3.036c1.084-2.608,5-1.289,5-1.289,5.413,5.6,15.623,9.176,15.623,9.176a98.3,98.3,0,0,0,20,5.17v.738h3.074a2.661,2.661,0,0,1,2.661,2.661v5.167a2.662,2.662,0,0,1-2.661,2.661H168.691a2.662,2.662,0,0,1-2.661-2.661V272.52a2.661,2.661,0,0,1,2.661-2.661h2.353a2.666,2.666,0,0,1-.059-.557V267.27a2.661,2.661,0,0,1,2.661-2.661h9.079v-6.4l-7.241.91a1.724,1.724,0,0,1-1.939-1.711h0a1.517,1.517,0,0,1,1.188-1.481l9.354-2.08a6.5,6.5,0,0,1,.52-.588,6.426,6.426,0,0,1,4.543-1.882h0A6.423,6.423,0,0,1,192.063,252.072Zm-2.911,5.776a1.309,1.309,0,1,1-1.309,1.309A1.31,1.31,0,0,1,189.152,257.848Zm19.46-14.872v4.478l4.144-.892v-4.247l4.382-.7a1.087,1.087,0,0,0,.916-1.073h0a3.873,3.873,0,0,0-.519-1.977,2.681,2.681,0,0,0-1.271-.336l-11.685,1.86c-.527.084-.929,1.362-.929,1.9l.013-.823a3.872,3.872,0,0,0,.519,1.977,1.516,1.516,0,0,0,1.223.344Zm56.095-.426A1.706,1.706,0,0,0,263,240.844H247.045a1.706,1.706,0,0,0-1.707,1.707h0a1.706,1.706,0,0,0,1.707,1.707H263a1.706,1.706,0,0,0,1.706-1.707Z" transform="translate(-155.78 -230.96)" fill="none" stroke="#fff" stroke-width="2.5" fill-rule="evenodd"/>
        </g>
      </g>
    </g>
  </g>
</svg>
