<svg xmlns="http://www.w3.org/2000/svg" xmlns:xlink="http://www.w3.org/1999/xlink" width="101.62" height="109.91" viewBox="0 0 101.62 109.91">
  <defs>
    <filter id="Path_727" x="0" y="60.98" width="101.223" height="26.131" filterUnits="userSpaceOnUse">
      <feOffset dy="3" input="SourceAlpha"/>
      <feGaussianBlur stdDeviation="3" result="blur"/>
      <feFlood flood-opacity="0.161"/>
      <feComposite operator="in" in2="blur"/>
      <feComposite in="SourceGraphic"/>
    </filter>
    <filter id="Path_728" x="0" y="52.849" width="101.223" height="26.131" filterUnits="userSpaceOnUse">
      <feOffset dy="3" input="SourceAlpha"/>
      <feGaussianBlur stdDeviation="3" result="blur-2"/>
      <feFlood flood-opacity="0.161"/>
      <feComposite operator="in" in2="blur-2"/>
      <feComposite in="SourceGraphic"/>
    </filter>
    <filter id="Path_729" x="0" y="0" width="101.62" height="70.849" filterUnits="userSpaceOnUse">
      <feOffset dy="3" input="SourceAlpha"/>
      <feGaussianBlur stdDeviation="3" result="blur-3"/>
      <feFlood flood-opacity="0.161"/>
      <feComposite operator="in" in2="blur-3"/>
      <feComposite in="SourceGraphic"/>
    </filter>
    <filter id="Path_732" x="5.024" y="33.878" width="26.131" height="26.131" filterUnits="userSpaceOnUse">
      <feOffset dy="3" input="SourceAlpha"/>
      <feGaussianBlur stdDeviation="3" result="blur-4"/>
      <feFlood flood-opacity="0.161"/>
      <feComposite operator="in" in2="blur-4"/>
      <feComposite in="SourceGraphic"/>
    </filter>
  </defs>
  <g id="Group_4025" data-name="Group 4025" transform="translate(-948.19 -1233.785)">
    <text id="MAYDAY" transform="translate(999 1340.695)" fill="#fff" font-size="15" font-family="Arial-BoldMT, Arial" font-weight="700"><tspan x="-31.124" y="0">MAYDAY</tspan></text>
    <g id="sinking" transform="translate(956.178 1201.77)">
      <g transform="matrix(1, 0, 0, 1, -7.99, 32.02)" filter="url(#Path_727)">
        <path id="Path_727-2" data-name="Path 727" d="M76.477,448a7.842,7.842,0,0,0-5.585,2.313L69.3,451.9a5.315,5.315,0,0,1-7.337,0l-1.588-1.588a7.9,7.9,0,0,0-11.169,0L47.623,451.9a5.315,5.315,0,0,1-7.337,0L38.7,450.313a7.9,7.9,0,0,0-11.169,0L25.941,451.9a5.315,5.315,0,0,1-7.337,0l-1.588-1.588a7.9,7.9,0,0,0-11.169,0l-3.5,3.5,1.916,1.916,3.5-3.5a5.316,5.316,0,0,1,7.337,0l1.588,1.588a7.9,7.9,0,0,0,11.169,0l1.588-1.588a5.316,5.316,0,0,1,7.337,0l1.588,1.588a7.9,7.9,0,0,0,11.169,0l1.588-1.588a5.316,5.316,0,0,1,7.337,0l1.588,1.588a7.9,7.9,0,0,0,11.169,0l1.588-1.588a5.316,5.316,0,0,1,7.337,0l3.5,3.5,1.916-1.916-3.5-3.5A7.842,7.842,0,0,0,76.477,448Zm0,0" transform="translate(6.66 -381.02)" fill="#fff"/>
      </g>
      <g transform="matrix(1, 0, 0, 1, -7.99, 32.02)" filter="url(#Path_728)">
        <path id="Path_728-2" data-name="Path 728" d="M76.477,400a7.842,7.842,0,0,0-5.585,2.313L69.3,403.9a5.315,5.315,0,0,1-7.337,0l-1.588-1.588a7.9,7.9,0,0,0-11.169,0L47.623,403.9a5.315,5.315,0,0,1-7.337,0L38.7,402.313a7.9,7.9,0,0,0-11.169,0L25.941,403.9a5.315,5.315,0,0,1-7.337,0l-1.588-1.588a7.9,7.9,0,0,0-11.169,0l-3.5,3.5,1.916,1.916,3.5-3.5a5.316,5.316,0,0,1,7.337,0l1.588,1.588a7.9,7.9,0,0,0,11.169,0l1.588-1.588a5.316,5.316,0,0,1,7.337,0l1.588,1.588a7.9,7.9,0,0,0,11.169,0l1.588-1.588a5.316,5.316,0,0,1,7.337,0l1.588,1.588a7.9,7.9,0,0,0,11.169,0l1.588-1.588a5.316,5.316,0,0,1,7.337,0l3.5,3.5,1.916-1.916-3.5-3.5A7.842,7.842,0,0,0,76.477,400Zm0,0" transform="translate(6.66 -341.15)" fill="#fff"/>
      </g>
      <g transform="matrix(1, 0, 0, 1, -7.99, 32.02)" filter="url(#Path_729)">
        <path id="Path_729-2" data-name="Path 729" d="M81.5,96.528a1.355,1.355,0,0,0-1.916,0l-4.462,4.462-4.859-4.859,1.752-1.752L70.1,92.463l-8.528,8.528-4.859-4.859,1.752-1.752-1.916-1.916L50.73,98.28,40.847,88.4a1.355,1.355,0,0,0-1.916,0l-5.42,5.42a1.353,1.353,0,0,0,0,1.916l9.883,9.883-2.149,2.149-9.883-9.883a1.355,1.355,0,0,0-1.916,0l-5.42,5.42a1.353,1.353,0,0,0,0,1.916l9.883,9.883-1.355,1.355H8.721a1.351,1.351,0,0,0-.958.4l-5.42,5.42,1.916,1.916,5.023-5.023H29.842L15.284,133.726a7.888,7.888,0,0,0-9.437,1.306l-3.5,3.5,1.916,1.916,3.5-3.5a5.316,5.316,0,0,1,7.337,0l1.588,1.588a7.9,7.9,0,0,0,11.169,0l1.588-1.588a5.316,5.316,0,0,1,7.337,0l1.588,1.588a7.9,7.9,0,0,0,11.169,0l1.588-1.588a5.316,5.316,0,0,1,7.337,0l1.588,1.588a7.9,7.9,0,0,0,11.169,0l1.588-1.588a5.316,5.316,0,0,1,7.337,0l3.5,3.5,1.916-1.916-3.5-3.5a7.946,7.946,0,0,0-1.878-1.393l2.672-2.672a1.349,1.349,0,0,0,.4-.958V104.823l2.313-2.313a1.353,1.353,0,0,0,0-1.916ZM36.385,94.776l3.5-3.5,8.925,8.925-3.5,3.5ZM26.9,104.262l3.5-3.5,8.925,8.925-3.5,3.5Zm-.958,32.358a5.315,5.315,0,0,1-7.337,0l-1.191-1.191L54.8,98.047l4.859,4.859Zm7.708-3.875,34.7-34.7,4.859,4.859L39.889,136.223,38.7,135.032a7.837,7.837,0,0,0-5.049-2.287Zm13.974,3.875a5.31,5.31,0,0,1-5.453,1.155L80.542,99.4l2.149,2.149Zm32.92-7.173-3.308,3.308c-.251-.023-.5-.037-.758-.037a7.842,7.842,0,0,0-5.585,2.313L69.3,136.62a5.315,5.315,0,0,1-7.337,0l-1.588-1.588a7.841,7.841,0,0,0-5.049-2.287l25.212-25.212Zm0,0" transform="translate(6.66 -82)" fill="#fff"/>
      </g>
      <g transform="matrix(1, 0, 0, 1, -7.99, 32.02)" filter="url(#Path_732)">
        <path id="Path_732-2" data-name="Path 732" d="M40.131,292.065a4.065,4.065,0,1,0-4.065,4.065A4.071,4.071,0,0,0,40.131,292.065Zm-5.42,0a1.355,1.355,0,1,1,1.355,1.355A1.357,1.357,0,0,1,34.71,292.065Zm0,0" transform="translate(-17.98 -248.12)" fill="#fff"/>
      </g>
    </g>
  </g>
</svg>
