<svg xmlns="http://www.w3.org/2000/svg" xmlns:xlink="http://www.w3.org/1999/xlink" width="122" height="113.695" viewBox="0 0 122 113.695">
  <defs>
    <filter id="Path_733" x="50.125" y="13.735" width="26.242" height="46.844" filterUnits="userSpaceOnUse">
      <feOffset dy="3" input="SourceAlpha"/>
      <feGaussianBlur stdDeviation="3" result="blur"/>
      <feFlood flood-opacity="0.161"/>
      <feComposite operator="in" in2="blur"/>
      <feComposite in="SourceGraphic"/>
    </filter>
    <filter id="Path_735" x="21.282" y="5.494" width="83.928" height="83.928" filterUnits="userSpaceOnUse">
      <feOffset dy="3" input="SourceAlpha"/>
      <feGaussianBlur stdDeviation="3" result="blur-2"/>
      <feFlood flood-opacity="0.161"/>
      <feComposite operator="in" in2="blur-2"/>
      <feComposite in="SourceGraphic"/>
    </filter>
    <filter id="Path_736" x="15.788" y="0" width="94.916" height="94.916" filterUnits="userSpaceOnUse">
      <feOffset dy="3" input="SourceAlpha"/>
      <feGaussianBlur stdDeviation="3" result="blur-3"/>
      <feFlood flood-opacity="0.161"/>
      <feComposite operator="in" in2="blur-3"/>
      <feComposite in="SourceGraphic"/>
    </filter>
  </defs>
  <g id="Group_4017" data-name="Group 4017" transform="translate(-455.754 -1028)">
    <text id="NOON_POSITION" data-name="NOON POSITION" transform="translate(516.754 1138.695)" fill="#fff" font-size="15" font-family="Arial-BoldMT, Arial" font-weight="700"><tspan x="-60.421" y="0">NOON POSITION</tspan></text>
    <g id="clock_1_" data-name="clock (1)" transform="translate(448.542 1002)">
      <g transform="matrix(1, 0, 0, 1, 7.21, 26)" filter="url(#Path_733)">
        <path id="Path_733-2" data-name="Path 733" d="M240.238,136.723a4.127,4.127,0,0,0-2.747-3.884V126.3l.4.4a1.374,1.374,0,1,0,1.942-1.942l-2.345-2.345v-5.73l.4.4a1.374,1.374,0,1,0,1.942-1.942l-2.747-2.747a1.374,1.374,0,0,0-1.942,0l-2.747,2.747a1.374,1.374,0,0,0,1.942,1.942l.4-.4v5.73l-2.345,2.345a1.374,1.374,0,1,0,1.942,1.942l.4-.4v6.535a4.12,4.12,0,1,0,5.494,3.884Zm-4.12,1.374a1.373,1.373,0,1,1,1.374-1.374A1.374,1.374,0,0,1,236.117,138.1Z" transform="translate(-172.87 -92.26)" fill="#fff"/>
      </g>
      <g transform="matrix(1, 0, 0, 1, 7.21, 26)" filter="url(#Path_735)">
        <path id="Path_735-2" data-name="Path 735" d="M96.964,64a32.964,32.964,0,1,0,32.964,32.964A33,33,0,0,0,96.964,64Zm28.843,34.337h1.341a30.1,30.1,0,0,1-7.879,18.989l-.939-.939a1.374,1.374,0,0,0-1.942,1.942l.939.939a30.1,30.1,0,0,1-18.989,7.879v-1.341a1.373,1.373,0,0,0-2.747,0v1.341A30.1,30.1,0,0,1,76.6,119.269l.939-.939a1.374,1.374,0,0,0-1.942-1.942l-.939.939a30.1,30.1,0,0,1-7.88-18.989H68.12a1.373,1.373,0,0,0,0-2.747H66.78A30.1,30.1,0,0,1,74.658,76.6l.939.939A1.374,1.374,0,0,0,77.54,75.6l-.939-.939A30.1,30.1,0,0,1,95.59,66.78V68.12a1.373,1.373,0,0,0,2.747,0V66.78a30.1,30.1,0,0,1,18.989,7.879l-.939.939a1.374,1.374,0,0,0,1.942,1.942l.939-.939a30.1,30.1,0,0,1,7.879,18.989h-1.341a1.373,1.373,0,0,0,0,2.747Z" transform="translate(-33.72 -52.51)" fill="#fff"/>
      </g>
      <g transform="matrix(1, 0, 0, 1, 7.21, 26)" filter="url(#Path_736)">
        <path id="Path_736-2" data-name="Path 736" d="M70.458,32a38.458,38.458,0,1,0,38.458,38.458A38.458,38.458,0,0,0,70.458,32Zm0,74.169a35.711,35.711,0,1,1,35.711-35.711A35.751,35.751,0,0,1,70.458,106.169Z" transform="translate(-7.21 -26)" fill="#fff"/>
      </g>
    </g>
  </g>
</svg>
